<mxfile host="app.diagrams.net" modified="2024-02-15T14:43:01.036Z" agent="Mozilla/5.0 (Windows NT 10.0; Win64; x64) AppleWebKit/537.36 (KHTML, like Gecko) Chrome/121.0.0.0 Safari/537.36" etag="KrJl6e6bn_CLWplk7BGm" version="23.1.2" type="device">
  <diagram name="Page-1" id="EzoCOvkVwDmHKvuM7Lxs">
    <mxGraphModel dx="1517" dy="765" grid="1" gridSize="10" guides="1" tooltips="1" connect="1" arrows="1" fold="1" page="1" pageScale="1" pageWidth="850" pageHeight="1100" math="0" shadow="0">
      <root>
        <mxCell id="0" />
        <mxCell id="1" parent="0" />
        <mxCell id="vL1M8GC-VxI9ipxhp3WC-12" value="" style="shape=image;verticalLabelPosition=bottom;labelBackgroundColor=default;verticalAlign=top;aspect=fixed;imageAspect=0;image=data:image/svg+xml,PHN2ZyB4bWxuczp4bGluaz0iaHR0cDovL3d3dy53My5vcmcvMTk5OS94bGluayIgeG1sbnM9Imh0dHA6Ly93d3cudzMub3JnLzIwMDAvc3ZnIiBoZWlnaHQ9IjM1NyIgd2lkdGg9IjM2Mi4zNSIgdmlld0JveD0iMCAwIDM2Mi4zNSAzNTciPjxnIHRyYW5zZm9ybT0idHJhbnNsYXRlKDE0MDAuNSAxMjAuNSkiPjxwYXRoIGZpbGw9IiNmZmYiIGQ9Ik0tMTUwMC01MDBoNTAwVjUwMGgtNTAweiIvPjxwYXRoIGZpbGw9IiNmZmYiIGQ9Ik0tMTM4MC05NWE1IDUgMCAwIDEgNS01aDMxMGE1IDUgMCAwIDEgNSA1djMwNmE1IDUgMCAwIDEtNSA1aC0zMTBhNSA1IDAgMCAxLTUtNXoiLz48cGF0aCBmaWxsPSIjZGVkZWZmIiBkPSJNLTEzODAtNjB2LTM1YTUgNSAwIDAgMSA1LTVoMzEwYTUgNSAwIDAgMSA1IDV2MzUiLz48cGF0aCBmaWxsPSJub25lIiBzdHJva2U9IiMyODJjMzMiIGQ9Ik0tMTM4MC05NWE1IDUgMCAwIDEgNS01aDMxMGE1IDUgMCAwIDEgNSA1djMwNmE1IDUgMCAwIDEtNSA1aC0zMTBhNSA1IDAgMCAxLTUtNXpNLTEzODAtNjBoMzIwTS0xMzIwLTYwdjI3NiIvPjx1c2UgdHJhbnNmb3JtPSJtYXRyaXgoMSwwLDAsMSwtMTM3MCwtMTAwKSB0cmFuc2xhdGUoMTA3LjA3NDk5OTk5OTk5OTk5IDIzLjYpIiB4bGluazpocmVmPSIjYSIvPjx1c2UgdHJhbnNmb3JtPSJtYXRyaXgoMSwwLDAsMSwtMTM3NSwtNTcuNSkgdHJhbnNsYXRlKDEzIDE3LjEpIiB4bGluazpocmVmPSIjYiIvPjx1c2UgdHJhbnNmb3JtPSJtYXRyaXgoMSwwLDAsMSwtMTMxNSwtNTcuNSkgdHJhbnNsYXRlKDAgMTcuMSkiIHhsaW5rOmhyZWY9IiNjIi8+PHVzZSB0cmFuc2Zvcm09Im1hdHJpeCgxLDAsMCwxLC0xMzE1LC01Ny41KSB0cmFuc2xhdGUoMTA1LjgwMDAwMDAwMDAwMDAxIDE3LjEpIiB4bGluazpocmVmPSIjZCIvPjx1c2UgdHJhbnNmb3JtPSJtYXRyaXgoMSwwLDAsMSwtMTMxNSwtMjUuNSkgdHJhbnNsYXRlKDAgMTYuNzk5OTk5OTk5OTk5OTk3KSIgeGxpbms6aHJlZj0iI2UiLz48dXNlIHRyYW5zZm9ybT0ibWF0cml4KDEsMCwwLDEsLTEzMTUsLTI1LjUpIHRyYW5zbGF0ZSg5Mi43NSAxNi43OTk5OTk5OTk5OTk5OTcpIiB4bGluazpocmVmPSIjZiIvPjx1c2UgdHJhbnNmb3JtPSJtYXRyaXgoMSwwLDAsMSwtMTMxNSwtMjUuNSkgdHJhbnNsYXRlKDAgMzguNCkiIHhsaW5rOmhyZWY9IiNnIi8+PHVzZSB0cmFuc2Zvcm09Im1hdHJpeCgxLDAsMCwxLC0xMzE1LC0yNS41KSB0cmFuc2xhdGUoNDIuNTUwMDAwMDAwMDAwMDA0IDM4LjQpIiB4bGluazpocmVmPSIjaCIvPjx1c2UgdHJhbnNmb3JtPSJtYXRyaXgoMSwwLDAsMSwtMTMxNSwyNy41KSB0cmFuc2xhdGUoMCAxNi43OTk5OTk5OTk5OTk5OTcpIiB4bGluazpocmVmPSIjaSIvPjx1c2UgdHJhbnNmb3JtPSJtYXRyaXgoMSwwLDAsMSwtMTMxNSwyNy41KSB0cmFuc2xhdGUoOTEuOSAxNi43OTk5OTk5OTk5OTk5OTcpIiB4bGluazpocmVmPSIjaiIvPjx1c2UgdHJhbnNmb3JtPSJtYXRyaXgoMSwwLDAsMSwtMTMxNSwyNy41KSB0cmFuc2xhdGUoMCAzOC40KSIgeGxpbms6aHJlZj0iI2ciLz48dXNlIHRyYW5zZm9ybT0ibWF0cml4KDEsMCwwLDEsLTEzMTUsMjcuNSkgdHJhbnNsYXRlKDQyLjU1MDAwMDAwMDAwMDAwNCAzOC40KSIgeGxpbms6aHJlZj0iI2giLz48Zz48dXNlIHRyYW5zZm9ybT0ibWF0cml4KDEsMCwwLDEsLTEzMTUsODAuNSkgdHJhbnNsYXRlKDAgMTYuNzk5OTk5OTk5OTk5OTk3KSIgeGxpbms6aHJlZj0iI2siLz48dXNlIHRyYW5zZm9ybT0ibWF0cml4KDEsMCwwLDEsLTEzMTUsODAuNSkgdHJhbnNsYXRlKDEyNS44NTAwMDAwMDAwMDAwMSAxNi43OTk5OTk5OTk5OTk5OTcpIiB4bGluazpocmVmPSIjbCIvPjx1c2UgdHJhbnNmb3JtPSJtYXRyaXgoMSwwLDAsMSwtMTMxNSw4MC41KSB0cmFuc2xhdGUoMCAzOC40KSIgeGxpbms6aHJlZj0iI2ciLz48dXNlIHRyYW5zZm9ybT0ibWF0cml4KDEsMCwwLDEsLTEzMTUsODAuNSkgdHJhbnNsYXRlKDQyLjU1MDAwMDAwMDAwMDAwNCAzOC40KSIgeGxpbms6aHJlZj0iI20iLz48dXNlIHRyYW5zZm9ybT0ibWF0cml4KDEsMCwwLDEsLTEzMTUsODAuNSkgdHJhbnNsYXRlKDk3LjgwMDAwMDAwMDAwMDAxIDM4LjQpIiB4bGluazpocmVmPSIjbiIvPjwvZz48Zz48dXNlIHRyYW5zZm9ybT0ibWF0cml4KDEsMCwwLDEsLTEzMTUsMTMzLjUpIHRyYW5zbGF0ZSgwIDE2Ljc5OTk5OTk5OTk5OTk5NykiIHhsaW5rOmhyZWY9IiNvIi8+PHVzZSB0cmFuc2Zvcm09Im1hdHJpeCgxLDAsMCwxLC0xMzE1LDEzMy41KSB0cmFuc2xhdGUoOTguOSAxNi43OTk5OTk5OTk5OTk5OTcpIiB4bGluazpocmVmPSIjcCIvPjx1c2UgdHJhbnNmb3JtPSJtYXRyaXgoMSwwLDAsMSwtMTMxNSwxMzMuNSkgdHJhbnNsYXRlKDAgMzguNCkiIHhsaW5rOmhyZWY9IiNnIi8+PHVzZSB0cmFuc2Zvcm09Im1hdHJpeCgxLDAsMCwxLC0xMzE1LDEzMy41KSB0cmFuc2xhdGUoNDIuNTUwMDAwMDAwMDAwMDA0IDM4LjQpIiB4bGluazpocmVmPSIjbSIvPjx1c2UgdHJhbnNmb3JtPSJtYXRyaXgoMSwwLDAsMSwtMTMxNSwxMzMuNSkgdHJhbnNsYXRlKDk3LjgwMDAwMDAwMDAwMDAxIDM4LjQpIiB4bGluazpocmVmPSIjbiIvPjwvZz48Zz48dXNlIHRyYW5zZm9ybT0ibWF0cml4KDEsMCwwLDEsLTEzNzUsMTg2LjUpIHRyYW5zbGF0ZSgxMy41MjQ5OTk5OTk5OTk5OTkgMTcuMSkiIHhsaW5rOmhyZWY9IiNxIi8+PC9nPjxnPjx1c2UgdHJhbnNmb3JtPSJtYXRyaXgoMSwwLDAsMSwtMTMxNSwxODYuNSkgdHJhbnNsYXRlKDAgMTcuMSkiIHhsaW5rOmhyZWY9IiNyIi8+PHVzZSB0cmFuc2Zvcm09Im1hdHJpeCgxLDAsMCwxLC0xMzE1LDE4Ni41KSB0cmFuc2xhdGUoNzUuMiAxNy4xKSIgeGxpbms6aHJlZj0iI24iLz48L2c+PGRlZnM+PHBhdGggaWQ9InMiIGQ9Ik0yMTItMTc5Yy0xMC0yOC0zNS00NS03My00NS01OSAwLTg3IDQwLTg3IDk5IDAgNjAgMjkgMTAxIDg5IDEwMSA0MyAwIDYyLTI0IDc4LTUybDI3IDE0QzIyOC0yNCAxOTUgNCAxMzkgNCA1OSA0IDIyLTQ2IDE4LTEyNWMtNi0xMDQgOTktMTUzIDE4Ny0xMTEgMTkgOSAzMSAyNiAzOSA0NiIvPjxwYXRoIGlkPSJ0IiBkPSJNODQgNEMtNSA4IDMwLTExMiAyMy0xOTBoMzJ2MTIwYzAgMzEgNyA1MCAzOSA0OSA3Mi0yIDQ1LTEwMSA1MC0xNjloMzFsMSAxOTBoLTMwYy0xLTEwIDEtMjUtMi0zMy0xMSAyMi0yOCAzNi02MCAzNyIvPjxwYXRoIGlkPSJ1IiBkPSJNMTM1LTE0M2MtMy0zNC04Ni0zOC04NyAwIDE1IDUzIDExNSAxMiAxMTkgOTBTMTcgMjEgMTAtNDVsMjgtNWM0IDM2IDk3IDQ1IDk4IDAtMTAtNTYtMTEzLTE1LTExOC05MC00LTU3IDgyLTYzIDEyMi00MiAxMiA3IDIxIDE5IDI0IDM1Ii8+PHBhdGggaWQ9InYiIGQ9Ik01OS00N2MtMiAyNCAxOCAyOSAzOCAyMnYyNEM2NCA5IDI3IDQgMjctNDB2LTEyN0g1di0yM2gyNGw5LTQzaDIxdjQzaDM1djIzSDU5djEyMCIvPjxwYXRoIGlkPSJ3IiBkPSJNMTAwLTE5NGM2Mi0xIDg1IDM3IDg1IDk5IDEgNjMtMjcgOTktODYgOTlTMTYtMzUgMTUtOTVjMC02NiAyOC05OSA4NS05OXpNOTktMjBjNDQgMSA1My0zMSA1My03NSAwLTQzLTgtNzUtNTEtNzVzLTUzIDMyLTUzIDc1IDEwIDc0IDUxIDc1Ii8+PHBhdGggaWQ9IngiIGQ9Ik0yMTAtMTY5Yy02NyAzLTM4IDEwNS00NCAxNjloLTMxdi0xMjFjMC0yOS01LTUwLTM1LTQ4QzM0LTE2NSA2Mi02NSA1NiAwSDI1bC0xLTE5MGgzMGMxIDEwLTEgMjQgMiAzMiAxMC00NCA5OS01MCAxMDcgMCAxMS0yMSAyNy0zNSA1OC0zNiA4NS0yIDQ3IDExOSA1NSAxOTRoLTMxdi0xMjFjMC0yOS01LTQ5LTM1LTQ4Ii8+PHBhdGggaWQ9InkiIGQ9Ik0xMDAtMTk0YzYzIDAgODYgNDIgODQgMTA2SDQ5YzAgNDAgMTQgNjcgNTMgNjggMjYgMSA0My0xMiA0OS0yOWwyOCA4Yy0xMSAyOC0zNyA0NS03NyA0NUM0NCA0IDE0LTMzIDE1LTk2YzEtNjEgMjYtOTggODUtOTh6bTUyIDgxYzYtNjAtNzYtNzctOTctMjgtMyA3LTYgMTctNiAyOGgxMDMiLz48cGF0aCBpZD0ieiIgZD0iTTExNC0xNjNDMzYtMTc5IDYxLTcyIDU3IDBIMjVsLTEtMTkwaDMwYzEgMTItMSAyOSAyIDM5IDYtMjcgMjMtNDkgNTgtNDF2MjkiLz48ZyBpZD0iYSI+PHVzZSB4bGluazpocmVmPSIjcyIgdHJhbnNmb3JtPSJtYXRyaXgoMC4wNSwwLDAsMC4wNSwwLDApIi8+PHVzZSB4bGluazpocmVmPSIjdCIgdHJhbnNmb3JtPSJtYXRyaXgoMC4wNSwwLDAsMC4wNSwxMi45NTAwMDAwMDAwMDAwMDEsMCkiLz48dXNlIHhsaW5rOmhyZWY9IiN1IiB0cmFuc2Zvcm09Im1hdHJpeCgwLjA1LDAsMCwwLjA1LDIyLjk1MDAwMDAwMDAwMDAwMywwKSIvPjx1c2UgeGxpbms6aHJlZj0iI3YiIHRyYW5zZm9ybT0ibWF0cml4KDAuMDUsMCwwLDAuMDUsMzEuOTUwMDAwMDAwMDAwMDAzLDApIi8+PHVzZSB4bGluazpocmVmPSIjdyIgdHJhbnNmb3JtPSJtYXRyaXgoMC4wNSwwLDAsMC4wNSwzNi45NSwwKSIvPjx1c2UgeGxpbms6aHJlZj0iI3giIHRyYW5zZm9ybT0ibWF0cml4KDAuMDUsMCwwLDAuMDUsNDYuOTUsMCkiLz48dXNlIHhsaW5rOmhyZWY9IiN5IiB0cmFuc2Zvcm09Im1hdHJpeCgwLjA1LDAsMCwwLjA1LDYxLjkwMDAwMDAwMDAwMDAwNiwwKSIvPjx1c2UgeGxpbms6aHJlZj0iI3oiIHRyYW5zZm9ybT0ibWF0cml4KDAuMDUsMCwwLDAuMDUsNzEuOSwwKSIvPjx1c2UgeGxpbms6aHJlZj0iI3UiIHRyYW5zZm9ybT0ibWF0cml4KDAuMDUsMCwwLDAuMDUsNzcuODUwMDAwMDAwMDAwMDEsMCkiLz48L2c+PHBhdGggaWQ9IkEiIGQ9Ik0zMC0yNDhjODcgMSAxOTEtMTUgMTkxIDc1IDAgNzgtNzcgODAtMTU4IDc2VjBIMzB2LTI0OHptMzMgMTI1YzU3IDAgMTI0IDExIDEyNC01MCAwLTU5LTY4LTQ3LTEyNC00OHY5OCIvPjxwYXRoIGlkPSJCIiBkPSJNMTk0IDBMOTUtMTIwIDYzLTk1VjBIMzB2LTI0OGgzM3YxMjRsMTE5LTEyNGg0MEwxMTctMTQwIDIzNiAwaC00MiIvPjxnIGlkPSJiIj48dXNlIHhsaW5rOmhyZWY9IiNBIiB0cmFuc2Zvcm09Im1hdHJpeCgwLjA1LDAsMCwwLjA1LDAsMCkiLz48dXNlIHhsaW5rOmhyZWY9IiNCIiB0cmFuc2Zvcm09Im1hdHJpeCgwLjA1LDAsMCwwLjA1LDEyLDApIi8+PC9nPjxwYXRoIGlkPSJDIiBkPSJNMjEyLTE3OWMtMTAtMjgtMzUtNDUtNzMtNDUtNTkgMC04NyA0MC04NyA5OSAwIDYwIDI5IDEwMSA4OSAxMDEgNDMgMCA2Mi0yNCA3OC01MmwyNyAxNEMyMjgtMjQgMTk1IDQgMTM5IDQgNTkgNCAyMi00NiAxOC0xMjVjLTYtMTA0IDk5LTE1MyAxODctMTExIDE5IDkgMzEgMjYgMzkgNDYiIGZpbGw9IiMzMzMiLz48cGF0aCBpZD0iRCIgZD0iTTg0IDRDLTUgOCAzMC0xMTIgMjMtMTkwaDMydjEyMGMwIDMxIDcgNTAgMzkgNDkgNzItMiA0NS0xMDEgNTAtMTY5aDMxbDEgMTkwaC0zMGMtMS0xMCAxLTI1LTItMzMtMTEgMjItMjggMzYtNjAgMzciIGZpbGw9IiMzMzMiLz48cGF0aCBpZD0iRSIgZD0iTTEzNS0xNDNjLTMtMzQtODYtMzgtODcgMCAxNSA1MyAxMTUgMTIgMTE5IDkwUzE3IDIxIDEwLTQ1bDI4LTVjNCAzNiA5NyA0NSA5OCAwLTEwLTU2LTExMy0xNS0xMTgtOTAtNC01NyA4Mi02MyAxMjItNDIgMTIgNyAyMSAxOSAyNCAzNSIgZmlsbD0iIzMzMyIvPjxwYXRoIGlkPSJGIiBkPSJNNTktNDdjLTIgMjQgMTggMjkgMzggMjJ2MjRDNjQgOSAyNyA0IDI3LTQwdi0xMjdINXYtMjNoMjRsOS00M2gyMXY0M2gzNXYyM0g1OXYxMjAiIGZpbGw9IiMzMzMiLz48cGF0aCBpZD0iRyIgZD0iTTEwMC0xOTRjNjItMSA4NSAzNyA4NSA5OSAxIDYzLTI3IDk5LTg2IDk5UzE2LTM1IDE1LTk1YzAtNjYgMjgtOTkgODUtOTl6TTk5LTIwYzQ0IDEgNTMtMzEgNTMtNzUgMC00My04LTc1LTUxLTc1cy01MyAzMi01MyA3NSAxMCA3NCA1MSA3NSIgZmlsbD0iIzMzMyIvPjxwYXRoIGlkPSJIIiBkPSJNMjEwLTE2OWMtNjcgMy0zOCAxMDUtNDQgMTY5aC0zMXYtMTIxYzAtMjktNS01MC0zNS00OEMzNC0xNjUgNjItNjUgNTYgMEgyNWwtMS0xOTBoMzBjMSAxMC0xIDI0IDIgMzIgMTAtNDQgOTktNTAgMTA3IDAgMTEtMjEgMjctMzUgNTgtMzYgODUtMiA0NyAxMTkgNTUgMTk0aC0zMXYtMTIxYzAtMjktNS00OS0zNS00OCIgZmlsbD0iIzMzMyIvPjxwYXRoIGlkPSJJIiBkPSJNMTAwLTE5NGM2MyAwIDg2IDQyIDg0IDEwNkg0OWMwIDQwIDE0IDY3IDUzIDY4IDI2IDEgNDMtMTIgNDktMjlsMjggOGMtMTEgMjgtMzcgNDUtNzcgNDVDNDQgNCAxNC0zMyAxNS05NmMxLTYxIDI2LTk4IDg1LTk4em01MiA4MWM2LTYwLTc2LTc3LTk3LTI4LTMgNy02IDE3LTYgMjhoMTAzIiBmaWxsPSIjMzMzIi8+PHBhdGggaWQ9IkoiIGQ9Ik0xMTQtMTYzQzM2LTE3OSA2MS03MiA1NyAwSDI1bC0xLTE5MGgzMGMxIDEyLTEgMjkgMiAzOSA2LTI3IDIzLTQ5IDU4LTQxdjI5IiBmaWxsPSIjMzMzIi8+PHBhdGggaWQ9IksiIGQ9Ik0zMyAwdi0yNDhoMzRWMEgzMyIgZmlsbD0iIzMzMyIvPjxwYXRoIGlkPSJMIiBkPSJNMzAtMjQ4YzExOC03IDIxNiA4IDIxMyAxMjJDMjQwLTQ4IDIwMCAwIDEyMiAwSDMwdi0yNDh6TTYzLTI3Yzg5IDggMTQ2LTE2IDE0Ni05OXMtNjAtMTAxLTE0Ni05NXYxOTQiIGZpbGw9IiMzMzMiLz48ZyBpZD0iYyI+PHVzZSB4bGluazpocmVmPSIjQyIgdHJhbnNmb3JtPSJtYXRyaXgoMC4wNSwwLDAsMC4wNSwwLDApIi8+PHVzZSB4bGluazpocmVmPSIjRCIgdHJhbnNmb3JtPSJtYXRyaXgoMC4wNSwwLDAsMC4wNSwxMi45NTAwMDAwMDAwMDAwMDEsMCkiLz48dXNlIHhsaW5rOmhyZWY9IiNFIiB0cmFuc2Zvcm09Im1hdHJpeCgwLjA1LDAsMCwwLjA1LDIyLjk1MDAwMDAwMDAwMDAwMywwKSIvPjx1c2UgeGxpbms6aHJlZj0iI0YiIHRyYW5zZm9ybT0ibWF0cml4KDAuMDUsMCwwLDAuMDUsMzEuOTUwMDAwMDAwMDAwMDAzLDApIi8+PHVzZSB4bGluazpocmVmPSIjRyIgdHJhbnNmb3JtPSJtYXRyaXgoMC4wNSwwLDAsMC4wNSwzNi45NSwwKSIvPjx1c2UgeGxpbms6aHJlZj0iI0giIHRyYW5zZm9ybT0ibWF0cml4KDAuMDUsMCwwLDAuMDUsNDYuOTUsMCkiLz48dXNlIHhsaW5rOmhyZWY9IiNJIiB0cmFuc2Zvcm09Im1hdHJpeCgwLjA1LDAsMCwwLjA1LDYxLjkwMDAwMDAwMDAwMDAwNiwwKSIvPjx1c2UgeGxpbms6aHJlZj0iI0oiIHRyYW5zZm9ybT0ibWF0cml4KDAuMDUsMCwwLDAuMDUsNzEuOSwwKSIvPjx1c2UgeGxpbms6aHJlZj0iI0siIHRyYW5zZm9ybT0ibWF0cml4KDAuMDUsMCwwLDAuMDUsNzcuODUwMDAwMDAwMDAwMDEsMCkiLz48dXNlIHhsaW5rOmhyZWY9IiNMIiB0cmFuc2Zvcm09Im1hdHJpeCgwLjA1LDAsMCwwLjA1LDgyLjg1MDAwMDAwMDAwMDAxLDApIi8+PC9nPjxwYXRoIGlkPSJNIiBkPSJNMTkwIDBMNTgtMjExIDU5IDBIMzB2LTI0OGgzOUwyMDItMzVsLTItMjEzaDMxVjBoLTQxIiBmaWxsPSIjMzMzIi8+PHBhdGggaWQ9Ik4iIGQ9Ik0yMzItOTNjLTEgNjUtNDAgOTctMTA0IDk3QzY3IDQgMjgtMjggMjgtOTB2LTE1OGgzM2M4IDg5LTMzIDIyNCA2NyAyMjQgMTAyIDAgNjQtMTMzIDcxLTIyNGgzM3YxNTUiIGZpbGw9IiMzMzMiLz48cGF0aCBpZD0iTyIgZD0iTTI0MCAwbDItMjE4Yy0yMyA3Ni01NCAxNDUtODAgMjE4aC0yM0w1OC0yMTggNTkgMEgzMHYtMjQ4aDQ0bDc3IDIxMWMyMS03NSA1MS0xNDAgNzYtMjExaDQzVjBoLTMwIiBmaWxsPSIjMzMzIi8+PHBhdGggaWQ9IlAiIGQ9Ik0xNjAtMTMxYzM1IDUgNjEgMjMgNjEgNjFDMjIxIDE3IDExNS0yIDMwIDB2LTI0OGM3NiAzIDE3Ny0xNyAxNzcgNjAgMCAzMy0xOSA1MC00NyA1N3ptLTk3LTExYzUwLTEgMTEwIDkgMTEwLTQyIDAtNDctNjMtMzYtMTEwLTM3djc5em0wIDExNWM1NS0yIDEyNCAxNCAxMjQtNDUgMC01Ni03MC00Mi0xMjQtNDR2ODkiIGZpbGw9IiMzMzMiLz48cGF0aCBpZD0iUSIgZD0iTTMwIDB2LTI0OGgxODd2MjhINjN2NzloMTQ0djI3SDYzdjg3aDE2MlYwSDMwIiBmaWxsPSIjMzMzIi8+PHBhdGggaWQ9IlIiIGQ9Ik0yMzMtMTc3Yy0xIDQxLTIzIDY0LTYwIDcwTDI0MyAwaC0zOGwtNjUtMTAzSDYzVjBIMzB2LTI0OGM4OCAzIDIwNS0yMSAyMDMgNzF6TTYzLTEyOWM2MC0yIDEzNyAxMyAxMzctNDcgMC02MS04MC00Mi0xMzctNDV2OTIiIGZpbGw9IiMzMzMiLz48cGF0aCBpZD0iUyIgZD0iTTg3IDc1QzQ5IDMzIDIyLTE3IDIyLTk0YzAtNzYgMjgtMTI2IDY1LTE2N2gzMWMtMzggNDEtNjQgOTItNjQgMTY4UzgwIDM0IDExOCA3NUg4NyIgZmlsbD0iIzMzMyIvPjxwYXRoIGlkPSJUIiBkPSJNMTEwLTE2MGM0OCAxIDc0IDMwIDc0IDc5IDAgNTMtMjggODUtODAgODUtNjUgMC04My01NS04Ni0xMjItNS05MCA1MC0xNjIgMTMzLTEyMiAxNCA3IDIyIDIxIDI3IDM5bC0zMSA2Yy01LTQwLTY3LTM4LTgyLTYtOSAxOS0xNSA0NC0xNSA3NCAxMS0yMCAzMC0zNCA2MC0zM3ptLTcgMTM4YzM0IDAgNDktMjMgNDktNThzLTE2LTU2LTUwLTU2Yy0yOSAwLTUwIDE2LTQ5IDQ5IDEgMzYgMTUgNjUgNTAgNjUiIGZpbGw9IiMzMzMiLz48cGF0aCBpZD0iVSIgZD0iTTMzLTI2MWMzOCA0MSA2NSA5MiA2NSAxNjhTNzEgMzQgMzMgNzVIMkMzOSAzNCA2Ni0xNyA2Ni05M1MzOS0yMjAgMi0yNjFoMzEiIGZpbGw9IiMzMzMiLz48ZyBpZD0iZCI+PHVzZSB4bGluazpocmVmPSIjTSIgdHJhbnNmb3JtPSJtYXRyaXgoMC4wNSwwLDAsMC4wNSwwLDApIi8+PHVzZSB4bGluazpocmVmPSIjTiIgdHJhbnNmb3JtPSJtYXRyaXgoMC4wNSwwLDAsMC4wNSwxMi45NTAwMDAwMDAwMDAwMDEsMCkiLz48dXNlIHhsaW5rOmhyZWY9IiNPIiB0cmFuc2Zvcm09Im1hdHJpeCgwLjA1LDAsMCwwLjA1LDI1LjkwMDAwMDAwMDAwMDAwMiwwKSIvPjx1c2UgeGxpbms6aHJlZj0iI1AiIHRyYW5zZm9ybT0ibWF0cml4KDAuMDUsMCwwLDAuMDUsNDAuODUsMCkiLz48dXNlIHhsaW5rOmhyZWY9IiNRIiB0cmFuc2Zvcm09Im1hdHJpeCgwLjA1LDAsMCwwLjA1LDUyLjg1LDApIi8+PHVzZSB4bGluazpocmVmPSIjUiIgdHJhbnNmb3JtPSJtYXRyaXgoMC4wNSwwLDAsMC4wNSw2NC44NSwwKSIvPjx1c2UgeGxpbms6aHJlZj0iI1MiIHRyYW5zZm9ybT0ibWF0cml4KDAuMDUsMCwwLDAuMDUsNzcuOCwwKSIvPjx1c2UgeGxpbms6aHJlZj0iI1QiIHRyYW5zZm9ybT0ibWF0cml4KDAuMDUsMCwwLDAuMDUsODMuNzUsMCkiLz48dXNlIHhsaW5rOmhyZWY9IiNVIiB0cmFuc2Zvcm09Im1hdHJpeCgwLjA1LDAsMCwwLjA1LDkzLjc1LDApIi8+PC9nPjxwYXRoIGlkPSJWIiBkPSJNNjMtMjIwdjkyaDEzOHYyOEg2M1YwSDMwdi0yNDhoMTc1djI4SDYzIiBmaWxsPSIjMzMzIi8+PHBhdGggaWQ9IlciIGQ9Ik0yNC0yMzF2LTMwaDMydjMwSDI0ek0yNCAwdi0xOTBoMzJWMEgyNCIgZmlsbD0iIzMzMyIvPjxwYXRoIGlkPSJYIiBkPSJNMTQxLTM2QzEyNi0xNSAxMTAgNSA3MyA0IDM3IDMgMTUtMTcgMTUtNTNjLTEtNjQgNjMtNjMgMTI1LTYzIDMtMzUtOS01NC00MS01NC0yNCAxLTQxIDctNDIgMzFsLTMzLTNjNS0zNyAzMy01MiA3Ni01MiA0NSAwIDcyIDIwIDcyIDY0djgyYy0xIDIwIDcgMzIgMjggMjd2MjBjLTMxIDktNjEtMi01OS0zNXpNNDgtNTNjMCAyMCAxMiAzMyAzMiAzMyA0MS0zIDYzLTI5IDYwLTc0LTQzIDItOTItNS05MiA0MSIgZmlsbD0iIzMzMyIvPjxnIGlkPSJlIj48dXNlIHhsaW5rOmhyZWY9IiNWIiB0cmFuc2Zvcm09Im1hdHJpeCgwLjA1LDAsMCwwLjA1LDAsMCkiLz48dXNlIHhsaW5rOmhyZWY9IiNXIiB0cmFuc2Zvcm09Im1hdHJpeCgwLjA1LDAsMCwwLjA1LDEwLjk1MDAwMDAwMDAwMDAwMSwwKSIvPjx1c2UgeGxpbms6aHJlZj0iI0oiIHRyYW5zZm9ybT0ibWF0cml4KDAuMDUsMCwwLDAuMDUsMTQuOSwwKSIvPjx1c2UgeGxpbms6aHJlZj0iI0UiIHRyYW5zZm9ybT0ibWF0cml4KDAuMDUsMCwwLDAuMDUsMjAuODUsMCkiLz48dXNlIHhsaW5rOmhyZWY9IiNGIiB0cmFuc2Zvcm09Im1hdHJpeCgwLjA1LDAsMCwwLjA1LDI5Ljg1LDApIi8+PHVzZSB4bGluazpocmVmPSIjTSIgdHJhbnNmb3JtPSJtYXRyaXgoMC4wNSwwLDAsMC4wNSwzNC44NSwwKSIvPjx1c2UgeGxpbms6aHJlZj0iI1giIHRyYW5zZm9ybT0ibWF0cml4KDAuMDUsMCwwLDAuMDUsNDcuODAwMDAwMDAwMDAwMDA0LDApIi8+PHVzZSB4bGluazpocmVmPSIjSCIgdHJhbnNmb3JtPSJtYXRyaXgoMC4wNSwwLDAsMC4wNSw1Ny44MDAwMDAwMDAwMDAwMDQsMCkiLz48dXNlIHhsaW5rOmhyZWY9IiNJIiB0cmFuc2Zvcm09Im1hdHJpeCgwLjA1LDAsMCwwLjA1LDcyLjc1LDApIi8+PC9nPjxwYXRoIGlkPSJZIiBkPSJNMTM3IDBoLTM0TDItMjQ4aDM1bDgzIDIxOCA4My0yMThoMzYiIGZpbGw9IiMzMzMiLz48cGF0aCBpZD0iWiIgZD0iTTIwNSAwbC0yOC03Mkg2NEwzNiAwSDFsMTAxLTI0OGgzOEwyMzkgMGgtMzR6bS0zOC05OWwtNDctMTIzYy0xMiA0NS0zMSA4Mi00NiAxMjNoOTMiIGZpbGw9IiMzMzMiLz48cGF0aCBpZD0iYWEiIGQ9Ik0xOTcgMHYtMTE1SDYzVjBIMzB2LTI0OGgzM3YxMDVoMTM0di0xMDVoMzRWMGgtMzQiIGZpbGw9IiMzMzMiLz48cGF0aCBpZD0iYWIiIGQ9Ik0xMjYtMTI3YzMzIDYgNTggMjAgNTggNTkgMCA4OC0xMzkgOTItMTY0IDI5LTMtOC01LTE2LTYtMjVsMzItM2M2IDI3IDIxIDQ0IDU0IDQ0IDMyIDAgNTItMTUgNTItNDYgMC0zOC0zNi00Ni03OS00M3YtMjhjMzkgMSA3Mi00IDcyLTQyIDAtMjctMTctNDMtNDYtNDMtMjggMC00NyAxNS00OSA0MWwtMzItM2M2LTQyIDM1LTYzIDgxLTY0IDQ4LTEgNzkgMjEgNzkgNjUgMCAzNi0yMSA1Mi01MiA1OSIgZmlsbD0iIzMzMyIvPjxwYXRoIGlkPSJhYyIgZD0iTTEwMS0yNTFjNjggMCA4NSA1NSA4NSAxMjdTMTY2IDQgMTAwIDRDMzMgNCAxNC01MiAxNC0xMjRjMC03MyAxNy0xMjcgODctMTI3em0tMSAyMjljNDcgMCA1NC00OSA1NC0xMDJzLTQtMTAyLTUzLTEwMmMtNTEgMC01NSA0OC01NSAxMDIgMCA1MyA1IDEwMiA1NCAxMDIiIGZpbGw9IiMzMzMiLz48ZyBpZD0iZiI+PHVzZSB4bGluazpocmVmPSIjWSIgdHJhbnNmb3JtPSJtYXRyaXgoMC4wNSwwLDAsMC4wNSwwLDApIi8+PHVzZSB4bGluazpocmVmPSIjWiIgdHJhbnNmb3JtPSJtYXRyaXgoMC4wNSwwLDAsMC4wNSwxMC42NSwwKSIvPjx1c2UgeGxpbms6aHJlZj0iI1IiIHRyYW5zZm9ybT0ibWF0cml4KDAuMDUsMCwwLDAuMDUsMjIuNjUsMCkiLz48dXNlIHhsaW5rOmhyZWY9IiNDIiB0cmFuc2Zvcm09Im1hdHJpeCgwLjA1LDAsMCwwLjA1LDM1LjYsMCkiLz48dXNlIHhsaW5rOmhyZWY9IiNhYSIgdHJhbnNmb3JtPSJtYXRyaXgoMC4wNSwwLDAsMC4wNSw0OC41NTAwMDAwMDAwMDAwMDQsMCkiLz48dXNlIHhsaW5rOmhyZWY9IiNaIiB0cmFuc2Zvcm09Im1hdHJpeCgwLjA1LDAsMCwwLjA1LDYxLjUsMCkiLz48dXNlIHhsaW5rOmhyZWY9IiNSIiB0cmFuc2Zvcm09Im1hdHJpeCgwLjA1LDAsMCwwLjA1LDczLjUsMCkiLz48dXNlIHhsaW5rOmhyZWY9IiNTIiB0cmFuc2Zvcm09Im1hdHJpeCgwLjA1LDAsMCwwLjA1LDg2LjQ1LDApIi8+PHVzZSB4bGluazpocmVmPSIjYWIiIHRyYW5zZm9ybT0ibWF0cml4KDAuMDUsMCwwLDAuMDUsOTIuNCwwKSIvPjx1c2UgeGxpbms6aHJlZj0iI2FjIiB0cmFuc2Zvcm09Im1hdHJpeCgwLjA1LDAsMCwwLjA1LDEwMi40LDApIi8+PHVzZSB4bGluazpocmVmPSIjVSIgdHJhbnNmb3JtPSJtYXRyaXgoMC4wNSwwLDAsMC4wNSwxMTIuNCwwKSIvPjwvZz48cGF0aCBpZD0iYWQiIGQ9Ik0xNDAtMjUxYzgxIDAgMTIzIDQ2IDEyMyAxMjZDMjYzLTQ2IDIxOSA0IDE0MCA0IDU5IDQgMTctNDUgMTctMTI1czQyLTEyNiAxMjMtMTI2em0wIDIyN2M2MyAwIDg5LTQxIDg5LTEwMXMtMjktOTktODktOTljLTYxIDAtODkgMzktODkgOTlTNzktMjUgMTQwLTI0IiBmaWxsPSIjMzMzIi8+PHBhdGggaWQ9ImFlIiBkPSJNMTI3LTIyMFYwSDkzdi0yMjBIOHYtMjhoMjA0djI4aC04NSIgZmlsbD0iIzMzMyIvPjxnIGlkPSJnIj48dXNlIHhsaW5rOmhyZWY9IiNNIiB0cmFuc2Zvcm09Im1hdHJpeCgwLjA1LDAsMCwwLjA1LDAsMCkiLz48dXNlIHhsaW5rOmhyZWY9IiNhZCIgdHJhbnNmb3JtPSJtYXRyaXgoMC4wNSwwLDAsMC4wNSwxMi45NTAwMDAwMDAwMDAwMDEsMCkiLz48dXNlIHhsaW5rOmhyZWY9IiNhZSIgdHJhbnNmb3JtPSJtYXRyaXgoMC4wNSwwLDAsMC4wNSwyNi45NTAwMDAwMDAwMDAwMDMsMCkiLz48L2c+PHBhdGggaWQ9ImFmIiBkPSJNMzAgMHYtMjQ4aDMzdjIyMWgxMjVWMEgzMCIgZmlsbD0iIzMzMyIvPjxnIGlkPSJoIj48dXNlIHhsaW5rOmhyZWY9IiNNIiB0cmFuc2Zvcm09Im1hdHJpeCgwLjA1LDAsMCwwLjA1LDAsMCkiLz48dXNlIHhsaW5rOmhyZWY9IiNOIiB0cmFuc2Zvcm09Im1hdHJpeCgwLjA1LDAsMCwwLjA1LDEyLjk1MDAwMDAwMDAwMDAwMSwwKSIvPjx1c2UgeGxpbms6aHJlZj0iI2FmIiB0cmFuc2Zvcm09Im1hdHJpeCgwLjA1LDAsMCwwLjA1LDI1LjkwMDAwMDAwMDAwMDAwMiwwKSIvPjx1c2UgeGxpbms6aHJlZj0iI2FmIiB0cmFuc2Zvcm09Im1hdHJpeCgwLjA1LDAsMCwwLjA1LDM1LjkwMDAwMDAwMDAwMDAwNiwwKSIvPjwvZz48ZyBpZD0iaSI+PHVzZSB4bGluazpocmVmPSIjYWYiIHRyYW5zZm9ybT0ibWF0cml4KDAuMDUsMCwwLDAuMDUsMCwwKSIvPjx1c2UgeGxpbms6aHJlZj0iI1giIHRyYW5zZm9ybT0ibWF0cml4KDAuMDUsMCwwLDAuMDUsMTAsMCkiLz48dXNlIHhsaW5rOmhyZWY9IiNFIiB0cmFuc2Zvcm09Im1hdHJpeCgwLjA1LDAsMCwwLjA1LDIwLDApIi8+PHVzZSB4bGluazpocmVmPSIjRiIgdHJhbnNmb3JtPSJtYXRyaXgoMC4wNSwwLDAsMC4wNSwyOSwwKSIvPjx1c2UgeGxpbms6aHJlZj0iI00iIHRyYW5zZm9ybT0ibWF0cml4KDAuMDUsMCwwLDAuMDUsMzQsMCkiLz48dXNlIHhsaW5rOmhyZWY9IiNYIiB0cmFuc2Zvcm09Im1hdHJpeCgwLjA1LDAsMCwwLjA1LDQ2Ljk1LDApIi8+PHVzZSB4bGluazpocmVmPSIjSCIgdHJhbnNmb3JtPSJtYXRyaXgoMC4wNSwwLDAsMC4wNSw1Ni45NSwwKSIvPjx1c2UgeGxpbms6aHJlZj0iI0kiIHRyYW5zZm9ybT0ibWF0cml4KDAuMDUsMCwwLDAuMDUsNzEuOSwwKSIvPjwvZz48ZyBpZD0iaiI+PHVzZSB4bGluazpocmVmPSIjWSIgdHJhbnNmb3JtPSJtYXRyaXgoMC4wNSwwLDAsMC4wNSwwLDApIi8+PHVzZSB4bGluazpocmVmPSIjWiIgdHJhbnNmb3JtPSJtYXRyaXgoMC4wNSwwLDAsMC4wNSwxMC42NSwwKSIvPjx1c2UgeGxpbms6aHJlZj0iI1IiIHRyYW5zZm9ybT0ibWF0cml4KDAuMDUsMCwwLDAuMDUsMjIuNjUsMCkiLz48dXNlIHhsaW5rOmhyZWY9IiNDIiB0cmFuc2Zvcm09Im1hdHJpeCgwLjA1LDAsMCwwLjA1LDM1LjYsMCkiLz48dXNlIHhsaW5rOmhyZWY9IiNhYSIgdHJhbnNmb3JtPSJtYXRyaXgoMC4wNSwwLDAsMC4wNSw0OC41NTAwMDAwMDAwMDAwMDQsMCkiLz48dXNlIHhsaW5rOmhyZWY9IiNaIiB0cmFuc2Zvcm09Im1hdHJpeCgwLjA1LDAsMCwwLjA1LDYxLjUsMCkiLz48dXNlIHhsaW5rOmhyZWY9IiNSIiB0cmFuc2Zvcm09Im1hdHJpeCgwLjA1LDAsMCwwLjA1LDczLjUsMCkiLz48dXNlIHhsaW5rOmhyZWY9IiNTIiB0cmFuc2Zvcm09Im1hdHJpeCgwLjA1LDAsMCwwLjA1LDg2LjQ1LDApIi8+PHVzZSB4bGluazpocmVmPSIjYWIiIHRyYW5zZm9ybT0ibWF0cml4KDAuMDUsMCwwLDAuMDUsOTIuNCwwKSIvPjx1c2UgeGxpbms6aHJlZj0iI2FjIiB0cmFuc2Zvcm09Im1hdHJpeCgwLjA1LDAsMCwwLjA1LDEwMi40LDApIi8+PHVzZSB4bGluazpocmVmPSIjVSIgdHJhbnNmb3JtPSJtYXRyaXgoMC4wNSwwLDAsMC4wNSwxMTIuNCwwKSIvPjwvZz48cGF0aCBpZD0iYWciIGQ9Ik0zMC0yNDhjODcgMSAxOTEtMTUgMTkxIDc1IDAgNzgtNzcgODAtMTU4IDc2VjBIMzB2LTI0OHptMzMgMTI1YzU3IDAgMTI0IDExIDEyNC01MCAwLTU5LTY4LTQ3LTEyNC00OHY5OCIgZmlsbD0iIzMzMyIvPjxwYXRoIGlkPSJhaCIgZD0iTTEwNi0xNjlDMzQtMTY5IDYyLTY3IDU3IDBIMjV2LTI2MWgzMmwtMSAxMDNjMTItMjEgMjgtMzYgNjEtMzYgODkgMCA1MyAxMTYgNjAgMTk0aC0zMnYtMTIxYzItMzItOC00OS0zOS00OCIgZmlsbD0iIzMzMyIvPjxwYXRoIGlkPSJhaSIgZD0iTTExNy0xOTRjODktNCA1MyAxMTYgNjAgMTk0aC0zMnYtMTIxYzAtMzEtOC00OS0zOS00OEMzNC0xNjcgNjItNjcgNTcgMEgyNWwtMS0xOTBoMzBjMSAxMC0xIDI0IDIgMzIgMTEtMjIgMjktMzUgNjEtMzYiIGZpbGw9IiMzMzMiLz48cGF0aCBpZD0iYWoiIGQ9Ik0xMTUtMTk0YzUzIDAgNjkgMzkgNzAgOTggMCA2Ni0yMyAxMDAtNzAgMTAwQzg0IDMgNjYtNyA1Ni0zMEw1NCAwSDIzbDEtMjYxaDMydjEwMWMxMC0yMyAyOC0zNCA1OS0zNHptLTggMTc0YzQwIDAgNDUtMzQgNDUtNzUgMC00MC01LTc1LTQ1LTc0LTQyIDAtNTEgMzItNTEgNzYgMCA0MyAxMCA3MyA1MSA3MyIgZmlsbD0iIzMzMyIvPjxnIGlkPSJrIj48dXNlIHhsaW5rOmhyZWY9IiNhZyIgdHJhbnNmb3JtPSJtYXRyaXgoMC4wNSwwLDAsMC4wNSwwLDApIi8+PHVzZSB4bGluazpocmVmPSIjYWgiIHRyYW5zZm9ybT0ibWF0cml4KDAuMDUsMCwwLDAuMDUsMTIsMCkiLz48dXNlIHhsaW5rOmhyZWY9IiNHIiB0cmFuc2Zvcm09Im1hdHJpeCgwLjA1LDAsMCwwLjA1LDIyLDApIi8+PHVzZSB4bGluazpocmVmPSIjYWkiIHRyYW5zZm9ybT0ibWF0cml4KDAuMDUsMCwwLDAuMDUsMzIsMCkiLz48dXNlIHhsaW5rOmhyZWY9IiNJIiB0cmFuc2Zvcm09Im1hdHJpeCgwLjA1LDAsMCwwLjA1LDQyLDApIi8+PHVzZSB4bGluazpocmVmPSIjTSIgdHJhbnNmb3JtPSJtYXRyaXgoMC4wNSwwLDAsMC4wNSw1MiwwKSIvPjx1c2UgeGxpbms6aHJlZj0iI0QiIHRyYW5zZm9ybT0ibWF0cml4KDAuMDUsMCwwLDAuMDUsNjQuOTUsMCkiLz48dXNlIHhsaW5rOmhyZWY9IiNIIiB0cmFuc2Zvcm09Im1hdHJpeCgwLjA1LDAsMCwwLjA1LDc0Ljk1LDApIi8+PHVzZSB4bGluazpocmVmPSIjYWoiIHRyYW5zZm9ybT0ibWF0cml4KDAuMDUsMCwwLDAuMDUsODkuOSwwKSIvPjx1c2UgeGxpbms6aHJlZj0iI0kiIHRyYW5zZm9ybT0ibWF0cml4KDAuMDUsMCwwLDAuMDUsOTkuOSwwKSIvPjx1c2UgeGxpbms6aHJlZj0iI0oiIHRyYW5zZm9ybT0ibWF0cml4KDAuMDUsMCwwLDAuMDUsMTA5LjksMCkiLz48L2c+PHBhdGggaWQ9ImFrIiBkPSJNMjcgMHYtMjdoNjR2LTE5MGwtNTYgMzl2LTI5bDU4LTQxaDI5djIyMWg2MVYwSDI3IiBmaWxsPSIjMzMzIi8+PGcgaWQ9ImwiPjx1c2UgeGxpbms6aHJlZj0iI1kiIHRyYW5zZm9ybT0ibWF0cml4KDAuMDUsMCwwLDAuMDUsMCwwKSIvPjx1c2UgeGxpbms6aHJlZj0iI1oiIHRyYW5zZm9ybT0ibWF0cml4KDAuMDUsMCwwLDAuMDUsMTAuNjUsMCkiLz48dXNlIHhsaW5rOmhyZWY9IiNSIiB0cmFuc2Zvcm09Im1hdHJpeCgwLjA1LDAsMCwwLjA1LDIyLjY1LDApIi8+PHVzZSB4bGluazpocmVmPSIjQyIgdHJhbnNmb3JtPSJtYXRyaXgoMC4wNSwwLDAsMC4wNSwzNS42LDApIi8+PHVzZSB4bGluazpocmVmPSIjYWEiIHRyYW5zZm9ybT0ibWF0cml4KDAuMDUsMCwwLDAuMDUsNDguNTUwMDAwMDAwMDAwMDA0LDApIi8+PHVzZSB4bGluazpocmVmPSIjWiIgdHJhbnNmb3JtPSJtYXRyaXgoMC4wNSwwLDAsMC4wNSw2MS41LDApIi8+PHVzZSB4bGluazpocmVmPSIjUiIgdHJhbnNmb3JtPSJtYXRyaXgoMC4wNSwwLDAsMC4wNSw3My41LDApIi8+PHVzZSB4bGluazpocmVmPSIjUyIgdHJhbnNmb3JtPSJtYXRyaXgoMC4wNSwwLDAsMC4wNSw4Ni40NSwwKSIvPjx1c2UgeGxpbms6aHJlZj0iI2FrIiB0cmFuc2Zvcm09Im1hdHJpeCgwLjA1LDAsMCwwLjA1LDkyLjQsMCkiLz48dXNlIHhsaW5rOmhyZWY9IiNhYyIgdHJhbnNmb3JtPSJtYXRyaXgoMC4wNSwwLDAsMC4wNSwxMDIuNCwwKSIvPjx1c2UgeGxpbms6aHJlZj0iI1UiIHRyYW5zZm9ybT0ibWF0cml4KDAuMDUsMCwwLDAuMDUsMTEyLjQsMCkiLz48L2c+PGcgaWQ9Im0iPjx1c2UgeGxpbms6aHJlZj0iI00iIHRyYW5zZm9ybT0ibWF0cml4KDAuMDUsMCwwLDAuMDUsMCwwKSIvPjx1c2UgeGxpbms6aHJlZj0iI04iIHRyYW5zZm9ybT0ibWF0cml4KDAuMDUsMCwwLDAuMDUsMTIuOTUwMDAwMDAwMDAwMDAxLDApIi8+PHVzZSB4bGluazpocmVmPSIjYWYiIHRyYW5zZm9ybT0ibWF0cml4KDAuMDUsMCwwLDAuMDUsMjUuOTAwMDAwMDAwMDAwMDAyLDApIi8+PHVzZSB4bGluazpocmVmPSIjYWYiIHRyYW5zZm9ybT0ibWF0cml4KDAuMDUsMCwwLDAuMDUsMzUuOTAwMDAwMDAwMDAwMDA2LDApIi8+PC9nPjxwYXRoIGlkPSJhbCIgZD0iTTE0MC0yNTFjODEgMCAxMjMgNDYgMTIzIDEyNkMyNjMtNTMgMjI4LTggMTYzIDFjNyAzMCAzMCA0OCA2OSA0MHYyM2MtNTUgMTYtOTUtMTUtMTAzLTYxQzU2LTMgMTctNDggMTctMTI1YzAtODAgNDItMTI2IDEyMy0xMjZ6bTAgMjI3YzYzIDAgODktNDEgODktMTAxcy0yOS05OS04OS05OWMtNjEgMC04OSAzOS04OSA5OVM3OS0yNSAxNDAtMjQiIGZpbGw9IiMzMzMiLz48ZyBpZD0ibiI+PHVzZSB4bGluazpocmVmPSIjTiIgdHJhbnNmb3JtPSJtYXRyaXgoMC4wNSwwLDAsMC4wNSwwLDApIi8+PHVzZSB4bGluazpocmVmPSIjTSIgdHJhbnNmb3JtPSJtYXRyaXgoMC4wNSwwLDAsMC4wNSwxMi45NTAwMDAwMDAwMDAwMDEsMCkiLz48dXNlIHhsaW5rOmhyZWY9IiNLIiB0cmFuc2Zvcm09Im1hdHJpeCgwLjA1LDAsMCwwLjA1LDI1LjkwMDAwMDAwMDAwMDAwMiwwKSIvPjx1c2UgeGxpbms6aHJlZj0iI2FsIiB0cmFuc2Zvcm09Im1hdHJpeCgwLjA1LDAsMCwwLjA1LDMwLjkwMDAwMDAwMDAwMDAwMiwwKSIvPjx1c2UgeGxpbms6aHJlZj0iI04iIHRyYW5zZm9ybT0ibWF0cml4KDAuMDUsMCwwLDAuMDUsNDQuOTAwMDAwMDAwMDAwMDA2LDApIi8+PHVzZSB4bGluazpocmVmPSIjUSIgdHJhbnNmb3JtPSJtYXRyaXgoMC4wNSwwLDAsMC4wNSw1Ny44NSwwKSIvPjwvZz48cGF0aCBpZD0iYW0iIGQ9Ik0xMTUtMTk0YzU1IDEgNzAgNDEgNzAgOThTMTY5IDIgMTE1IDRDODQgNCA2Ni05IDU1LTMwbDEgMTA1SDI0bC0xLTI2NWgzMWwyIDMwYzEwLTIxIDI4LTM0IDU5LTM0em0tOCAxNzRjNDAgMCA0NS0zNCA0NS03NXMtNi03My00NS03NGMtNDIgMC01MSAzMi01MSA3NiAwIDQzIDEwIDczIDUxIDczIiBmaWxsPSIjMzMzIi8+PGcgaWQ9Im8iPjx1c2UgeGxpbms6aHJlZj0iI2FnIiB0cmFuc2Zvcm09Im1hdHJpeCgwLjA1LDAsMCwwLjA1LDAsMCkiLz48dXNlIHhsaW5rOmhyZWY9IiNYIiB0cmFuc2Zvcm09Im1hdHJpeCgwLjA1LDAsMCwwLjA1LDEyLDApIi8+PHVzZSB4bGluazpocmVmPSIjRSIgdHJhbnNmb3JtPSJtYXRyaXgoMC4wNSwwLDAsMC4wNSwyMiwwKSIvPjx1c2UgeGxpbms6aHJlZj0iI0UiIHRyYW5zZm9ybT0ibWF0cml4KDAuMDUsMCwwLDAuMDUsMzEsMCkiLz48dXNlIHhsaW5rOmhyZWY9IiNhbSIgdHJhbnNmb3JtPSJtYXRyaXgoMC4wNSwwLDAsMC4wNSw0MCwwKSIvPjx1c2UgeGxpbms6aHJlZj0iI0ciIHRyYW5zZm9ybT0ibWF0cml4KDAuMDUsMCwwLDAuMDUsNTAsMCkiLz48dXNlIHhsaW5rOmhyZWY9IiNKIiB0cmFuc2Zvcm09Im1hdHJpeCgwLjA1LDAsMCwwLjA1LDYwLDApIi8+PHVzZSB4bGluazpocmVmPSIjRiIgdHJhbnNmb3JtPSJtYXRyaXgoMC4wNSwwLDAsMC4wNSw2NS45NSwwKSIvPjx1c2UgeGxpbms6aHJlZj0iI0siIHRyYW5zZm9ybT0ibWF0cml4KDAuMDUsMCwwLDAuMDUsNzAuOTUsMCkiLz48dXNlIHhsaW5rOmhyZWY9IiNMIiB0cmFuc2Zvcm09Im1hdHJpeCgwLjA1LDAsMCwwLjA1LDc1Ljk1LDApIi8+PC9nPjxwYXRoIGlkPSJhbiIgZD0iTTE1NS01NlYwaC0zMHYtNTZIOHYtMjVsMTE0LTE2N2gzM3YxNjdoMzV2MjVoLTM1em0tMzAtMTU2Yy0yNyA0Ni01OCA5MC04OCAxMzFoODh2LTEzMSIgZmlsbD0iIzMzMyIvPjxnIGlkPSJwIj48dXNlIHhsaW5rOmhyZWY9IiNZIiB0cmFuc2Zvcm09Im1hdHJpeCgwLjA1LDAsMCwwLjA1LDAsMCkiLz48dXNlIHhsaW5rOmhyZWY9IiNaIiB0cmFuc2Zvcm09Im1hdHJpeCgwLjA1LDAsMCwwLjA1LDEwLjY1LDApIi8+PHVzZSB4bGluazpocmVmPSIjUiIgdHJhbnNmb3JtPSJtYXRyaXgoMC4wNSwwLDAsMC4wNSwyMi42NSwwKSIvPjx1c2UgeGxpbms6aHJlZj0iI0MiIHRyYW5zZm9ybT0ibWF0cml4KDAuMDUsMCwwLDAuMDUsMzUuNiwwKSIvPjx1c2UgeGxpbms6aHJlZj0iI2FhIiB0cmFuc2Zvcm09Im1hdHJpeCgwLjA1LDAsMCwwLjA1LDQ4LjU1MDAwMDAwMDAwMDAwNCwwKSIvPjx1c2UgeGxpbms6aHJlZj0iI1oiIHRyYW5zZm9ybT0ibWF0cml4KDAuMDUsMCwwLDAuMDUsNjEuNSwwKSIvPjx1c2UgeGxpbms6aHJlZj0iI1IiIHRyYW5zZm9ybT0ibWF0cml4KDAuMDUsMCwwLDAuMDUsNzMuNSwwKSIvPjx1c2UgeGxpbms6aHJlZj0iI1MiIHRyYW5zZm9ybT0ibWF0cml4KDAuMDUsMCwwLDAuMDUsODYuNDUsMCkiLz48dXNlIHhsaW5rOmhyZWY9IiNhbiIgdHJhbnNmb3JtPSJtYXRyaXgoMC4wNSwwLDAsMC4wNSw5Mi40LDApIi8+PHVzZSB4bGluazpocmVmPSIjYWMiIHRyYW5zZm9ybT0ibWF0cml4KDAuMDUsMCwwLDAuMDUsMTAyLjQsMCkiLz48dXNlIHhsaW5rOmhyZWY9IiNVIiB0cmFuc2Zvcm09Im1hdHJpeCgwLjA1LDAsMCwwLjA1LDExMi40LDApIi8+PC9nPjxwYXRoIGlkPSJhbyIgZD0iTTYzLTIyMHY5MmgxMzh2MjhINjNWMEgzMHYtMjQ4aDE3NXYyOEg2MyIvPjxnIGlkPSJxIj48dXNlIHhsaW5rOmhyZWY9IiNhbyIgdHJhbnNmb3JtPSJtYXRyaXgoMC4wNSwwLDAsMC4wNSwwLDApIi8+PHVzZSB4bGluazpocmVmPSIjQiIgdHJhbnNmb3JtPSJtYXRyaXgoMC4wNSwwLDAsMC4wNSwxMC45NTAwMDAwMDAwMDAwMDEsMCkiLz48L2c+PHBhdGggaWQ9ImFwIiBkPSJNOTYtMTY5Yy00MCAwLTQ4IDMzLTQ4IDczczkgNzUgNDggNzVjMjQgMCA0MS0xNCA0My0zOGwzMiAyYy02IDM3LTMxIDYxLTc0IDYxLTU5IDAtNzYtNDEtODItOTktMTAtOTMgMTAxLTEzMSAxNDctNjQgNCA3IDUgMTQgNyAyMmwtMzIgM2MtNC0yMS0xNi0zNS00MS0zNSIgZmlsbD0iIzMzMyIvPjxwYXRoIGlkPSJhcSIgZD0iTTE0MyAwTDc5LTg3IDU2LTY4VjBIMjR2LTI2MWgzMnYxNjNsODMtOTJoMzdsLTc3IDgyTDE4MSAwaC0zOCIgZmlsbD0iIzMzMyIvPjxnIGlkPSJyIj48dXNlIHhsaW5rOmhyZWY9IiNhZSIgdHJhbnNmb3JtPSJtYXRyaXgoMC4wNSwwLDAsMC4wNSwwLDApIi8+PHVzZSB4bGluazpocmVmPSIjVyIgdHJhbnNmb3JtPSJtYXRyaXgoMC4wNSwwLDAsMC4wNSwxMC4zLDApIi8+PHVzZSB4bGluazpocmVmPSIjYXAiIHRyYW5zZm9ybT0ibWF0cml4KDAuMDUsMCwwLDAuMDUsMTQuMjUsMCkiLz48dXNlIHhsaW5rOmhyZWY9IiNhcSIgdHJhbnNmb3JtPSJtYXRyaXgoMC4wNSwwLDAsMC4wNSwyMy4yNSwwKSIvPjx1c2UgeGxpbms6aHJlZj0iI0kiIHRyYW5zZm9ybT0ibWF0cml4KDAuMDUsMCwwLDAuMDUsMzIuMjUsMCkiLz48dXNlIHhsaW5rOmhyZWY9IiNGIiB0cmFuc2Zvcm09Im1hdHJpeCgwLjA1LDAsMCwwLjA1LDQyLjI1LDApIi8+PHVzZSB4bGluazpocmVmPSIjSyIgdHJhbnNmb3JtPSJtYXRyaXgoMC4wNSwwLDAsMC4wNSw0Ny4yNSwwKSIvPjx1c2UgeGxpbms6aHJlZj0iI0wiIHRyYW5zZm9ybT0ibWF0cml4KDAuMDUsMCwwLDAuMDUsNTIuMjUsMCkiLz48L2c+PC9kZWZzPjwvZz48L3N2Zz4=;" vertex="1" parent="1">
          <mxGeometry y="160" width="362" height="357" as="geometry" />
        </mxCell>
        <mxCell id="vL1M8GC-VxI9ipxhp3WC-13" value="" style="shape=image;verticalLabelPosition=bottom;labelBackgroundColor=default;verticalAlign=top;aspect=fixed;imageAspect=0;image=data:image/svg+xml,PHN2ZyB4bWxuczp4bGluaz0iaHR0cDovL3d3dy53My5vcmcvMTk5OS94bGluayIgeG1sbnM9Imh0dHA6Ly93d3cudzMub3JnLzIwMDAvc3ZnIiBoZWlnaHQ9IjIxOSIgd2lkdGg9IjM2MSIgdmlld0JveD0iMCAwIDM2MSAyMTkiPjxnIHRyYW5zZm9ybT0idHJhbnNsYXRlKC00OTkuNSAtMTE5LjUpIj48cGF0aCBmaWxsPSIjZmZmIiBkPSJNNTAwIDBoNTAwdjUwMEg1MDB6Ii8+PHBhdGggZmlsbD0iI2ZmZiIgZD0iTTUyMCAxNDVhNSA1IDAgMCAxIDUtNWgzMTBhNSA1IDAgMCAxIDUgNXYxNjhhNSA1IDAgMCAxLTUgNUg1MjVhNSA1IDAgMCAxLTUtNXoiLz48cGF0aCBmaWxsPSIjYzNmN2M4IiBkPSJNNTIwIDE4MHYtMzVhNSA1IDAgMCAxIDUtNWgzMTBhNSA1IDAgMCAxIDUgNXYzNSIvPjxwYXRoIGZpbGw9Im5vbmUiIHN0cm9rZT0iIzI4MmMzMyIgZD0iTTUyMCAxNDVhNSA1IDAgMCAxIDUtNWgzMTBhNSA1IDAgMCAxIDUgNXYxNjhhNSA1IDAgMCAxLTUgNUg1MjVhNSA1IDAgMCAxLTUtNXpNNTIwIDE4MGgzMjBNNTgwIDE4MHYxMzgiLz48dXNlIHRyYW5zZm9ybT0ibWF0cml4KDEsMCwwLDEsNTMwLDE0MCkgdHJhbnNsYXRlKDEyMi4zNzUgMjMuNikiIHhsaW5rOmhyZWY9IiNhIi8+PHVzZSB0cmFuc2Zvcm09Im1hdHJpeCgxLDAsMCwxLDUyNSwxODIuNSkgdHJhbnNsYXRlKDEzIDE3LjEpIiB4bGluazpocmVmPSIjYiIvPjx1c2UgdHJhbnNmb3JtPSJtYXRyaXgoMSwwLDAsMSw1ODUsMTgyLjUpIHRyYW5zbGF0ZSgwIDE3LjEpIiB4bGluazpocmVmPSIjYyIvPjx1c2UgdHJhbnNmb3JtPSJtYXRyaXgoMSwwLDAsMSw1ODUsMTgyLjUpIHRyYW5zbGF0ZSg3NS4yIDE3LjEpIiB4bGluazpocmVmPSIjZCIvPjx1c2UgdHJhbnNmb3JtPSJtYXRyaXgoMSwwLDAsMSw1MjUsMjE0LjUpIHRyYW5zbGF0ZSgxMy41MjQ5OTk5OTk5OTk5OTkgMjcuNikiIHhsaW5rOmhyZWY9IiNlIi8+PHVzZSB0cmFuc2Zvcm09Im1hdHJpeCgxLDAsMCwxLDU4NSwyMTQuNSkgdHJhbnNsYXRlKDAgMTYuNzk5OTk5OTk5OTk5OTk3KSIgeGxpbms6aHJlZj0iI2YiLz48dXNlIHRyYW5zZm9ybT0ibWF0cml4KDEsMCwwLDEsNTg1LDIxNC41KSB0cmFuc2xhdGUoNjkuOSAxNi43OTk5OTk5OTk5OTk5OTcpIiB4bGluazpocmVmPSIjZyIvPjx1c2UgdHJhbnNmb3JtPSJtYXRyaXgoMSwwLDAsMSw1ODUsMjE0LjUpIHRyYW5zbGF0ZSgxNzQuNjAwMDAwMDAwMDAwMDIgMTYuNzk5OTk5OTk5OTk5OTk3KSIgeGxpbms6aHJlZj0iI2giLz48dXNlIHRyYW5zZm9ybT0ibWF0cml4KDEsMCwwLDEsNTg1LDIxNC41KSB0cmFuc2xhdGUoMCAzOC40KSIgeGxpbms6aHJlZj0iI2kiLz48Zz48dXNlIHRyYW5zZm9ybT0ibWF0cml4KDEsMCwwLDEsNTg1LDI2Ny41KSB0cmFuc2xhdGUoMCAxNi43OTk5OTk5OTk5OTk5OTcpIiB4bGluazpocmVmPSIjaiIvPjx1c2UgdHJhbnNmb3JtPSJtYXRyaXgoMSwwLDAsMSw1ODUsMjY3LjUpIHRyYW5zbGF0ZSgxMTAuODUwMDAwMDAwMDAwMDEgMTYuNzk5OTk5OTk5OTk5OTk3KSIgeGxpbms6aHJlZj0iI2siLz48dXNlIHRyYW5zZm9ybT0ibWF0cml4KDEsMCwwLDEsNTg1LDI2Ny41KSB0cmFuc2xhdGUoMCAzOC40KSIgeGxpbms6aHJlZj0iI2wiLz48dXNlIHRyYW5zZm9ybT0ibWF0cml4KDEsMCwwLDEsNTg1LDI2Ny41KSB0cmFuc2xhdGUoNDIuNTUwMDAwMDAwMDAwMDA0IDM4LjQpIiB4bGluazpocmVmPSIjaSIvPjwvZz48ZGVmcz48cGF0aCBpZD0ibSIgZD0iTTEyNy0yMjBWMEg5M3YtMjIwSDh2LTI4aDIwNHYyOGgtODUiLz48cGF0aCBpZD0ibiIgZD0iTTI0LTIzMXYtMzBoMzJ2MzBIMjR6TTI0IDB2LTE5MGgzMlYwSDI0Ii8+PHBhdGggaWQ9Im8iIGQ9Ik05Ni0xNjljLTQwIDAtNDggMzMtNDggNzNzOSA3NSA0OCA3NWMyNCAwIDQxLTE0IDQzLTM4bDMyIDJjLTYgMzctMzEgNjEtNzQgNjEtNTkgMC03Ni00MS04Mi05OS0xMC05MyAxMDEtMTMxIDE0Ny02NCA0IDcgNSAxNCA3IDIybC0zMiAzYy00LTIxLTE2LTM1LTQxLTM1Ii8+PHBhdGggaWQ9InAiIGQ9Ik0xNDMgMEw3OS04NyA1Ni02OFYwSDI0di0yNjFoMzJ2MTYzbDgzLTkyaDM3bC03NyA4MkwxODEgMGgtMzgiLz48cGF0aCBpZD0icSIgZD0iTTEwMC0xOTRjNjMgMCA4NiA0MiA4NCAxMDZINDljMCA0MCAxNCA2NyA1MyA2OCAyNiAxIDQzLTEyIDQ5LTI5bDI4IDhjLTExIDI4LTM3IDQ1LTc3IDQ1QzQ0IDQgMTQtMzMgMTUtOTZjMS02MSAyNi05OCA4NS05OHptNTIgODFjNi02MC03Ni03Ny05Ny0yOC0zIDctNiAxNy02IDI4aDEwMyIvPjxwYXRoIGlkPSJyIiBkPSJNNTktNDdjLTIgMjQgMTggMjkgMzggMjJ2MjRDNjQgOSAyNyA0IDI3LTQwdi0xMjdINXYtMjNoMjRsOS00M2gyMXY0M2gzNXYyM0g1OXYxMjAiLz48cGF0aCBpZD0icyIgZD0iTTEzNS0xNDNjLTMtMzQtODYtMzgtODcgMCAxNSA1MyAxMTUgMTIgMTE5IDkwUzE3IDIxIDEwLTQ1bDI4LTVjNCAzNiA5NyA0NSA5OCAwLTEwLTU2LTExMy0xNS0xMTgtOTAtNC01NyA4Mi02MyAxMjItNDIgMTIgNyAyMSAxOSAyNCAzNSIvPjxnIGlkPSJhIj48dXNlIHhsaW5rOmhyZWY9IiNtIiB0cmFuc2Zvcm09Im1hdHJpeCgwLjA1LDAsMCwwLjA1LDAsMCkiLz48dXNlIHhsaW5rOmhyZWY9IiNuIiB0cmFuc2Zvcm09Im1hdHJpeCgwLjA1LDAsMCwwLjA1LDEwLjMsMCkiLz48dXNlIHhsaW5rOmhyZWY9IiNvIiB0cmFuc2Zvcm09Im1hdHJpeCgwLjA1LDAsMCwwLjA1LDE0LjI1LDApIi8+PHVzZSB4bGluazpocmVmPSIjcCIgdHJhbnNmb3JtPSJtYXRyaXgoMC4wNSwwLDAsMC4wNSwyMy4yNSwwKSIvPjx1c2UgeGxpbms6aHJlZj0iI3EiIHRyYW5zZm9ybT0ibWF0cml4KDAuMDUsMCwwLDAuMDUsMzIuMjUsMCkiLz48dXNlIHhsaW5rOmhyZWY9IiNyIiB0cmFuc2Zvcm09Im1hdHJpeCgwLjA1LDAsMCwwLjA1LDQyLjI1LDApIi8+PHVzZSB4bGluazpocmVmPSIjcyIgdHJhbnNmb3JtPSJtYXRyaXgoMC4wNSwwLDAsMC4wNSw0Ny4yNSwwKSIvPjwvZz48cGF0aCBpZD0idCIgZD0iTTMwLTI0OGM4NyAxIDE5MS0xNSAxOTEgNzUgMCA3OC03NyA4MC0xNTggNzZWMEgzMHYtMjQ4em0zMyAxMjVjNTcgMCAxMjQgMTEgMTI0LTUwIDAtNTktNjgtNDctMTI0LTQ4djk4Ii8+PHBhdGggaWQ9InUiIGQ9Ik0xOTQgMEw5NS0xMjAgNjMtOTVWMEgzMHYtMjQ4aDMzdjEyNGwxMTktMTI0aDQwTDExNy0xNDAgMjM2IDBoLTQyIi8+PGcgaWQ9ImIiPjx1c2UgeGxpbms6aHJlZj0iI3QiIHRyYW5zZm9ybT0ibWF0cml4KDAuMDUsMCwwLDAuMDUsMCwwKSIvPjx1c2UgeGxpbms6aHJlZj0iI3UiIHRyYW5zZm9ybT0ibWF0cml4KDAuMDUsMCwwLDAuMDUsMTIsMCkiLz48L2c+PHBhdGggaWQ9InYiIGQ9Ik0xMjctMjIwVjBIOTN2LTIyMEg4di0yOGgyMDR2MjhoLTg1IiBmaWxsPSIjMzMzIi8+PHBhdGggaWQ9InciIGQ9Ik0yNC0yMzF2LTMwaDMydjMwSDI0ek0yNCAwdi0xOTBoMzJWMEgyNCIgZmlsbD0iIzMzMyIvPjxwYXRoIGlkPSJ4IiBkPSJNOTYtMTY5Yy00MCAwLTQ4IDMzLTQ4IDczczkgNzUgNDggNzVjMjQgMCA0MS0xNCA0My0zOGwzMiAyYy02IDM3LTMxIDYxLTc0IDYxLTU5IDAtNzYtNDEtODItOTktMTAtOTMgMTAxLTEzMSAxNDctNjQgNCA3IDUgMTQgNyAyMmwtMzIgM2MtNC0yMS0xNi0zNS00MS0zNSIgZmlsbD0iIzMzMyIvPjxwYXRoIGlkPSJ5IiBkPSJNMTQzIDBMNzktODcgNTYtNjhWMEgyNHYtMjYxaDMydjE2M2w4My05MmgzN2wtNzcgODJMMTgxIDBoLTM4IiBmaWxsPSIjMzMzIi8+PHBhdGggaWQ9InoiIGQ9Ik0xMDAtMTk0YzYzIDAgODYgNDIgODQgMTA2SDQ5YzAgNDAgMTQgNjcgNTMgNjggMjYgMSA0My0xMiA0OS0yOWwyOCA4Yy0xMSAyOC0zNyA0NS03NyA0NUM0NCA0IDE0LTMzIDE1LTk2YzEtNjEgMjYtOTggODUtOTh6bTUyIDgxYzYtNjAtNzYtNzctOTctMjgtMyA3LTYgMTctNiAyOGgxMDMiIGZpbGw9IiMzMzMiLz48cGF0aCBpZD0iQSIgZD0iTTU5LTQ3Yy0yIDI0IDE4IDI5IDM4IDIydjI0QzY0IDkgMjcgNCAyNy00MHYtMTI3SDV2LTIzaDI0bDktNDNoMjF2NDNoMzV2MjNINTl2MTIwIiBmaWxsPSIjMzMzIi8+PHBhdGggaWQ9IkIiIGQ9Ik0zMyAwdi0yNDhoMzRWMEgzMyIgZmlsbD0iIzMzMyIvPjxwYXRoIGlkPSJDIiBkPSJNMzAtMjQ4YzExOC03IDIxNiA4IDIxMyAxMjJDMjQwLTQ4IDIwMCAwIDEyMiAwSDMwdi0yNDh6TTYzLTI3Yzg5IDggMTQ2LTE2IDE0Ni05OXMtNjAtMTAxLTE0Ni05NXYxOTQiIGZpbGw9IiMzMzMiLz48ZyBpZD0iYyI+PHVzZSB4bGluazpocmVmPSIjdiIgdHJhbnNmb3JtPSJtYXRyaXgoMC4wNSwwLDAsMC4wNSwwLDApIi8+PHVzZSB4bGluazpocmVmPSIjdyIgdHJhbnNmb3JtPSJtYXRyaXgoMC4wNSwwLDAsMC4wNSwxMC4zLDApIi8+PHVzZSB4bGluazpocmVmPSIjeCIgdHJhbnNmb3JtPSJtYXRyaXgoMC4wNSwwLDAsMC4wNSwxNC4yNSwwKSIvPjx1c2UgeGxpbms6aHJlZj0iI3kiIHRyYW5zZm9ybT0ibWF0cml4KDAuMDUsMCwwLDAuMDUsMjMuMjUsMCkiLz48dXNlIHhsaW5rOmhyZWY9IiN6IiB0cmFuc2Zvcm09Im1hdHJpeCgwLjA1LDAsMCwwLjA1LDMyLjI1LDApIi8+PHVzZSB4bGluazpocmVmPSIjQSIgdHJhbnNmb3JtPSJtYXRyaXgoMC4wNSwwLDAsMC4wNSw0Mi4yNSwwKSIvPjx1c2UgeGxpbms6aHJlZj0iI0IiIHRyYW5zZm9ybT0ibWF0cml4KDAuMDUsMCwwLDAuMDUsNDcuMjUsMCkiLz48dXNlIHhsaW5rOmhyZWY9IiNDIiB0cmFuc2Zvcm09Im1hdHJpeCgwLjA1LDAsMCwwLjA1LDUyLjI1LDApIi8+PC9nPjxwYXRoIGlkPSJEIiBkPSJNMTkwIDBMNTgtMjExIDU5IDBIMzB2LTI0OGgzOUwyMDItMzVsLTItMjEzaDMxVjBoLTQxIiBmaWxsPSIjMzMzIi8+PHBhdGggaWQ9IkUiIGQ9Ik0yMzItOTNjLTEgNjUtNDAgOTctMTA0IDk3QzY3IDQgMjgtMjggMjgtOTB2LTE1OGgzM2M4IDg5LTMzIDIyNCA2NyAyMjQgMTAyIDAgNjQtMTMzIDcxLTIyNGgzM3YxNTUiIGZpbGw9IiMzMzMiLz48cGF0aCBpZD0iRiIgZD0iTTI0MCAwbDItMjE4Yy0yMyA3Ni01NCAxNDUtODAgMjE4aC0yM0w1OC0yMTggNTkgMEgzMHYtMjQ4aDQ0bDc3IDIxMWMyMS03NSA1MS0xNDAgNzYtMjExaDQzVjBoLTMwIiBmaWxsPSIjMzMzIi8+PHBhdGggaWQ9IkciIGQ9Ik0xNjAtMTMxYzM1IDUgNjEgMjMgNjEgNjFDMjIxIDE3IDExNS0yIDMwIDB2LTI0OGM3NiAzIDE3Ny0xNyAxNzcgNjAgMCAzMy0xOSA1MC00NyA1N3ptLTk3LTExYzUwLTEgMTEwIDkgMTEwLTQyIDAtNDctNjMtMzYtMTEwLTM3djc5em0wIDExNWM1NS0yIDEyNCAxNCAxMjQtNDUgMC01Ni03MC00Mi0xMjQtNDR2ODkiIGZpbGw9IiMzMzMiLz48cGF0aCBpZD0iSCIgZD0iTTMwIDB2LTI0OGgxODd2MjhINjN2NzloMTQ0djI3SDYzdjg3aDE2MlYwSDMwIiBmaWxsPSIjMzMzIi8+PHBhdGggaWQ9IkkiIGQ9Ik0yMzMtMTc3Yy0xIDQxLTIzIDY0LTYwIDcwTDI0MyAwaC0zOGwtNjUtMTAzSDYzVjBIMzB2LTI0OGM4OCAzIDIwNS0yMSAyMDMgNzF6TTYzLTEyOWM2MC0yIDEzNyAxMyAxMzctNDcgMC02MS04MC00Mi0xMzctNDV2OTIiIGZpbGw9IiMzMzMiLz48cGF0aCBpZD0iSiIgZD0iTTg3IDc1QzQ5IDMzIDIyLTE3IDIyLTk0YzAtNzYgMjgtMTI2IDY1LTE2N2gzMWMtMzggNDEtNjQgOTItNjQgMTY4UzgwIDM0IDExOCA3NUg4NyIgZmlsbD0iIzMzMyIvPjxwYXRoIGlkPSJLIiBkPSJNMTEwLTE2MGM0OCAxIDc0IDMwIDc0IDc5IDAgNTMtMjggODUtODAgODUtNjUgMC04My01NS04Ni0xMjItNS05MCA1MC0xNjIgMTMzLTEyMiAxNCA3IDIyIDIxIDI3IDM5bC0zMSA2Yy01LTQwLTY3LTM4LTgyLTYtOSAxOS0xNSA0NC0xNSA3NCAxMS0yMCAzMC0zNCA2MC0zM3ptLTcgMTM4YzM0IDAgNDktMjMgNDktNThzLTE2LTU2LTUwLTU2Yy0yOSAwLTUwIDE2LTQ5IDQ5IDEgMzYgMTUgNjUgNTAgNjUiIGZpbGw9IiMzMzMiLz48cGF0aCBpZD0iTCIgZD0iTTMzLTI2MWMzOCA0MSA2NSA5MiA2NSAxNjhTNzEgMzQgMzMgNzVIMkMzOSAzNCA2Ni0xNyA2Ni05M1MzOS0yMjAgMi0yNjFoMzEiIGZpbGw9IiMzMzMiLz48ZyBpZD0iZCI+PHVzZSB4bGluazpocmVmPSIjRCIgdHJhbnNmb3JtPSJtYXRyaXgoMC4wNSwwLDAsMC4wNSwwLDApIi8+PHVzZSB4bGluazpocmVmPSIjRSIgdHJhbnNmb3JtPSJtYXRyaXgoMC4wNSwwLDAsMC4wNSwxMi45NTAwMDAwMDAwMDAwMDEsMCkiLz48dXNlIHhsaW5rOmhyZWY9IiNGIiB0cmFuc2Zvcm09Im1hdHJpeCgwLjA1LDAsMCwwLjA1LDI1LjkwMDAwMDAwMDAwMDAwMiwwKSIvPjx1c2UgeGxpbms6aHJlZj0iI0ciIHRyYW5zZm9ybT0ibWF0cml4KDAuMDUsMCwwLDAuMDUsNDAuODUsMCkiLz48dXNlIHhsaW5rOmhyZWY9IiNIIiB0cmFuc2Zvcm09Im1hdHJpeCgwLjA1LDAsMCwwLjA1LDUyLjg1LDApIi8+PHVzZSB4bGluazpocmVmPSIjSSIgdHJhbnNmb3JtPSJtYXRyaXgoMC4wNSwwLDAsMC4wNSw2NC44NSwwKSIvPjx1c2UgeGxpbms6aHJlZj0iI0oiIHRyYW5zZm9ybT0ibWF0cml4KDAuMDUsMCwwLDAuMDUsNzcuOCwwKSIvPjx1c2UgeGxpbms6aHJlZj0iI0siIHRyYW5zZm9ybT0ibWF0cml4KDAuMDUsMCwwLDAuMDUsODMuNzUsMCkiLz48dXNlIHhsaW5rOmhyZWY9IiNMIiB0cmFuc2Zvcm09Im1hdHJpeCgwLjA1LDAsMCwwLjA1LDkzLjc1LDApIi8+PC9nPjxwYXRoIGlkPSJNIiBkPSJNNjMtMjIwdjkyaDEzOHYyOEg2M1YwSDMwdi0yNDhoMTc1djI4SDYzIi8+PGcgaWQ9ImUiPjx1c2UgeGxpbms6aHJlZj0iI00iIHRyYW5zZm9ybT0ibWF0cml4KDAuMDUsMCwwLDAuMDUsMCwwKSIvPjx1c2UgeGxpbms6aHJlZj0iI3UiIHRyYW5zZm9ybT0ibWF0cml4KDAuMDUsMCwwLDAuMDUsMTAuOTUwMDAwMDAwMDAwMDAxLDApIi8+PC9nPjxwYXRoIGlkPSJOIiBkPSJNMTQxLTM2QzEyNi0xNSAxMTAgNSA3MyA0IDM3IDMgMTUtMTcgMTUtNTNjLTEtNjQgNjMtNjMgMTI1LTYzIDMtMzUtOS01NC00MS01NC0yNCAxLTQxIDctNDIgMzFsLTMzLTNjNS0zNyAzMy01MiA3Ni01MiA0NSAwIDcyIDIwIDcyIDY0djgyYy0xIDIwIDcgMzIgMjggMjd2MjBjLTMxIDktNjEtMi01OS0zNXpNNDgtNTNjMCAyMCAxMiAzMyAzMiAzMyA0MS0zIDYzLTI5IDYwLTc0LTQzIDItOTItNS05MiA0MSIgZmlsbD0iIzMzMyIvPjxnIGlkPSJmIj48dXNlIHhsaW5rOmhyZWY9IiNJIiB0cmFuc2Zvcm09Im1hdHJpeCgwLjA1LDAsMCwwLjA1LDAsMCkiLz48dXNlIHhsaW5rOmhyZWY9IiNOIiB0cmFuc2Zvcm09Im1hdHJpeCgwLjA1LDAsMCwwLjA1LDEyLjk1MDAwMDAwMDAwMDAwMSwwKSIvPjx1c2UgeGxpbms6aHJlZj0iI3giIHRyYW5zZm9ybT0ibWF0cml4KDAuMDUsMCwwLDAuMDUsMjIuOTUwMDAwMDAwMDAwMDAzLDApIi8+PHVzZSB4bGluazpocmVmPSIjeiIgdHJhbnNmb3JtPSJtYXRyaXgoMC4wNSwwLDAsMC4wNSwzMS45NTAwMDAwMDAwMDAwMDMsMCkiLz48dXNlIHhsaW5rOmhyZWY9IiNCIiB0cmFuc2Zvcm09Im1hdHJpeCgwLjA1LDAsMCwwLjA1LDQxLjk1LDApIi8+PHVzZSB4bGluazpocmVmPSIjQyIgdHJhbnNmb3JtPSJtYXRyaXgoMC4wNSwwLDAsMC4wNSw0Ni45NSwwKSIvPjwvZz48cGF0aCBpZD0iTyIgZD0iTTY0IDBjMy05OCA0OC0xNTkgODgtMjIxSDE4di0yN2gxNjR2MjZDMTQzLTE1NyA5OC0xMDEgOTcgMEg2NCIgZmlsbD0iIzMzMyIvPjxnIGlkPSJnIj48dXNlIHhsaW5rOmhyZWY9IiNEIiB0cmFuc2Zvcm09Im1hdHJpeCgwLjA1LDAsMCwwLjA1LDAsMCkiLz48dXNlIHhsaW5rOmhyZWY9IiNFIiB0cmFuc2Zvcm09Im1hdHJpeCgwLjA1LDAsMCwwLjA1LDEyLjk1MDAwMDAwMDAwMDAwMSwwKSIvPjx1c2UgeGxpbms6aHJlZj0iI0YiIHRyYW5zZm9ybT0ibWF0cml4KDAuMDUsMCwwLDAuMDUsMjUuOTAwMDAwMDAwMDAwMDAyLDApIi8+PHVzZSB4bGluazpocmVmPSIjRyIgdHJhbnNmb3JtPSJtYXRyaXgoMC4wNSwwLDAsMC4wNSw0MC44NSwwKSIvPjx1c2UgeGxpbms6aHJlZj0iI0giIHRyYW5zZm9ybT0ibWF0cml4KDAuMDUsMCwwLDAuMDUsNTIuODUsMCkiLz48dXNlIHhsaW5rOmhyZWY9IiNJIiB0cmFuc2Zvcm09Im1hdHJpeCgwLjA1LDAsMCwwLjA1LDY0Ljg1LDApIi8+PHVzZSB4bGluazpocmVmPSIjSiIgdHJhbnNmb3JtPSJtYXRyaXgoMC4wNSwwLDAsMC4wNSw3Ny44LDApIi8+PHVzZSB4bGluazpocmVmPSIjTyIgdHJhbnNmb3JtPSJtYXRyaXgoMC4wNSwwLDAsMC4wNSw4My43NSwwKSIvPjx1c2UgeGxpbms6aHJlZj0iI0wiIHRyYW5zZm9ybT0ibWF0cml4KDAuMDUsMCwwLDAuMDUsOTMuNzUsMCkiLz48L2c+PHBhdGggaWQ9IlAiIGQ9Ik0xNDAtMjUxYzgxIDAgMTIzIDQ2IDEyMyAxMjZDMjYzLTQ2IDIxOSA0IDE0MCA0IDU5IDQgMTctNDUgMTctMTI1czQyLTEyNiAxMjMtMTI2em0wIDIyN2M2MyAwIDg5LTQxIDg5LTEwMXMtMjktOTktODktOTljLTYxIDAtODkgMzktODkgOTlTNzktMjUgMTQwLTI0IiBmaWxsPSIjMzMzIi8+PGcgaWQ9ImgiPjx1c2UgeGxpbms6aHJlZj0iI0QiIHRyYW5zZm9ybT0ibWF0cml4KDAuMDUsMCwwLDAuMDUsMCwwKSIvPjx1c2UgeGxpbms6aHJlZj0iI1AiIHRyYW5zZm9ybT0ibWF0cml4KDAuMDUsMCwwLDAuMDUsMTIuOTUwMDAwMDAwMDAwMDAxLDApIi8+PHVzZSB4bGluazpocmVmPSIjdiIgdHJhbnNmb3JtPSJtYXRyaXgoMC4wNSwwLDAsMC4wNSwyNi45NTAwMDAwMDAwMDAwMDMsMCkiLz48L2c+PHBhdGggaWQ9IlEiIGQ9Ik0zMCAwdi0yNDhoMzN2MjIxaDEyNVYwSDMwIiBmaWxsPSIjMzMzIi8+PGcgaWQ9ImkiPjx1c2UgeGxpbms6aHJlZj0iI0QiIHRyYW5zZm9ybT0ibWF0cml4KDAuMDUsMCwwLDAuMDUsMCwwKSIvPjx1c2UgeGxpbms6aHJlZj0iI0UiIHRyYW5zZm9ybT0ibWF0cml4KDAuMDUsMCwwLDAuMDUsMTIuOTUwMDAwMDAwMDAwMDAxLDApIi8+PHVzZSB4bGluazpocmVmPSIjUSIgdHJhbnNmb3JtPSJtYXRyaXgoMC4wNSwwLDAsMC4wNSwyNS45MDAwMDAwMDAwMDAwMDIsMCkiLz48dXNlIHhsaW5rOmhyZWY9IiNRIiB0cmFuc2Zvcm09Im1hdHJpeCgwLjA1LDAsMCwwLjA1LDM1LjkwMDAwMDAwMDAwMDAwNiwwKSIvPjwvZz48cGF0aCBpZD0iUiIgZD0iTTE4NS0xODljLTUtNDgtMTIzLTU0LTEyNCAyIDE0IDc1IDE1OCAxNCAxNjMgMTE5IDMgNzgtMTIxIDg3LTE3NSA1NS0xNy0xMC0yOC0yNi0zMy00NmwzMy03YzUgNTYgMTQxIDYzIDE0MS0xIDAtNzgtMTU1LTE0LTE2Mi0xMTgtNS04MiAxNDUtODQgMTc5LTM0IDUgNyA4IDE2IDExIDI1IiBmaWxsPSIjMzMzIi8+PHBhdGggaWQ9IlMiIGQ9Ik04NCA0Qy01IDggMzAtMTEyIDIzLTE5MGgzMnYxMjBjMCAzMSA3IDUwIDM5IDQ5IDcyLTIgNDUtMTAxIDUwLTE2OWgzMWwxIDE5MGgtMzBjLTEtMTAgMS0yNS0yLTMzLTExIDIyLTI4IDM2LTYwIDM3IiBmaWxsPSIjMzMzIi8+PHBhdGggaWQ9IlQiIGQ9Ik0yMTAtMTY5Yy02NyAzLTM4IDEwNS00NCAxNjloLTMxdi0xMjFjMC0yOS01LTUwLTM1LTQ4QzM0LTE2NSA2Mi02NSA1NiAwSDI1bC0xLTE5MGgzMGMxIDEwLTEgMjQgMiAzMiAxMC00NCA5OS01MCAxMDcgMCAxMS0yMSAyNy0zNSA1OC0zNiA4NS0yIDQ3IDExOSA1NSAxOTRoLTMxdi0xMjFjMC0yOS01LTQ5LTM1LTQ4IiBmaWxsPSIjMzMzIi8+PHBhdGggaWQ9IlUiIGQ9Ik0xMTUtMTk0YzUzIDAgNjkgMzkgNzAgOTggMCA2Ni0yMyAxMDAtNzAgMTAwQzg0IDMgNjYtNyA1Ni0zMEw1NCAwSDIzbDEtMjYxaDMydjEwMWMxMC0yMyAyOC0zNCA1OS0zNHptLTggMTc0YzQwIDAgNDUtMzQgNDUtNzUgMC00MC01LTc1LTQ1LTc0LTQyIDAtNTEgMzItNTEgNzYgMCA0MyAxMCA3MyA1MSA3MyIgZmlsbD0iIzMzMyIvPjxwYXRoIGlkPSJWIiBkPSJNMTE0LTE2M0MzNi0xNzkgNjEtNzIgNTcgMEgyNWwtMS0xOTBoMzBjMSAxMi0xIDI5IDIgMzkgNi0yNyAyMy00OSA1OC00MXYyOSIgZmlsbD0iIzMzMyIvPjxnIGlkPSJqIj48dXNlIHhsaW5rOmhyZWY9IiNSIiB0cmFuc2Zvcm09Im1hdHJpeCgwLjA1LDAsMCwwLjA1LDAsMCkiLz48dXNlIHhsaW5rOmhyZWY9IiN6IiB0cmFuc2Zvcm09Im1hdHJpeCgwLjA1LDAsMCwwLjA1LDEyLDApIi8+PHVzZSB4bGluazpocmVmPSIjTiIgdHJhbnNmb3JtPSJtYXRyaXgoMC4wNSwwLDAsMC4wNSwyMiwwKSIvPjx1c2UgeGxpbms6aHJlZj0iI0EiIHRyYW5zZm9ybT0ibWF0cml4KDAuMDUsMCwwLDAuMDUsMzIsMCkiLz48dXNlIHhsaW5rOmhyZWY9IiNEIiB0cmFuc2Zvcm09Im1hdHJpeCgwLjA1LDAsMCwwLjA1LDM3LDApIi8+PHVzZSB4bGluazpocmVmPSIjUyIgdHJhbnNmb3JtPSJtYXRyaXgoMC4wNSwwLDAsMC4wNSw0OS45NSwwKSIvPjx1c2UgeGxpbms6aHJlZj0iI1QiIHRyYW5zZm9ybT0ibWF0cml4KDAuMDUsMCwwLDAuMDUsNTkuOTUsMCkiLz48dXNlIHhsaW5rOmhyZWY9IiNVIiB0cmFuc2Zvcm09Im1hdHJpeCgwLjA1LDAsMCwwLjA1LDc0LjksMCkiLz48dXNlIHhsaW5rOmhyZWY9IiN6IiB0cmFuc2Zvcm09Im1hdHJpeCgwLjA1LDAsMCwwLjA1LDg0LjksMCkiLz48dXNlIHhsaW5rOmhyZWY9IiNWIiB0cmFuc2Zvcm09Im1hdHJpeCgwLjA1LDAsMCwwLjA1LDk0LjksMCkiLz48L2c+PHBhdGggaWQ9IlciIGQ9Ik01NC0xNDJjNDgtMzUgMTM3LTggMTMxIDYxQzE5NiAxOCAzMSAzMyAxNC01NWwzMi00YzcgMjMgMjIgMzcgNTIgMzcgMzUtMSA1MS0yMiA1NC01OCA0LTU1LTczLTY1LTk5LTM0SDIybDgtMTM0aDE0MXYyN0g1OSIgZmlsbD0iIzMzMyIvPjxnIGlkPSJrIj48dXNlIHhsaW5rOmhyZWY9IiNEIiB0cmFuc2Zvcm09Im1hdHJpeCgwLjA1LDAsMCwwLjA1LDAsMCkiLz48dXNlIHhsaW5rOmhyZWY9IiNFIiB0cmFuc2Zvcm09Im1hdHJpeCgwLjA1LDAsMCwwLjA1LDEyLjk1MDAwMDAwMDAwMDAwMSwwKSIvPjx1c2UgeGxpbms6aHJlZj0iI0YiIHRyYW5zZm9ybT0ibWF0cml4KDAuMDUsMCwwLDAuMDUsMjUuOTAwMDAwMDAwMDAwMDAyLDApIi8+PHVzZSB4bGluazpocmVmPSIjRyIgdHJhbnNmb3JtPSJtYXRyaXgoMC4wNSwwLDAsMC4wNSw0MC44NSwwKSIvPjx1c2UgeGxpbms6aHJlZj0iI0giIHRyYW5zZm9ybT0ibWF0cml4KDAuMDUsMCwwLDAuMDUsNTIuODUsMCkiLz48dXNlIHhsaW5rOmhyZWY9IiNJIiB0cmFuc2Zvcm09Im1hdHJpeCgwLjA1LDAsMCwwLjA1LDY0Ljg1LDApIi8+PHVzZSB4bGluazpocmVmPSIjSiIgdHJhbnNmb3JtPSJtYXRyaXgoMC4wNSwwLDAsMC4wNSw3Ny44LDApIi8+PHVzZSB4bGluazpocmVmPSIjVyIgdHJhbnNmb3JtPSJtYXRyaXgoMC4wNSwwLDAsMC4wNSw4My43NSwwKSIvPjx1c2UgeGxpbms6aHJlZj0iI0wiIHRyYW5zZm9ybT0ibWF0cml4KDAuMDUsMCwwLDAuMDUsOTMuNzUsMCkiLz48L2c+PGcgaWQ9ImwiPjx1c2UgeGxpbms6aHJlZj0iI0QiIHRyYW5zZm9ybT0ibWF0cml4KDAuMDUsMCwwLDAuMDUsMCwwKSIvPjx1c2UgeGxpbms6aHJlZj0iI1AiIHRyYW5zZm9ybT0ibWF0cml4KDAuMDUsMCwwLDAuMDUsMTIuOTUwMDAwMDAwMDAwMDAxLDApIi8+PHVzZSB4bGluazpocmVmPSIjdiIgdHJhbnNmb3JtPSJtYXRyaXgoMC4wNSwwLDAsMC4wNSwyNi45NTAwMDAwMDAwMDAwMDMsMCkiLz48L2c+PC9kZWZzPjwvZz48L3N2Zz4=;" vertex="1" parent="1">
          <mxGeometry x="490" y="160" width="361" height="219" as="geometry" />
        </mxCell>
        <mxCell id="vL1M8GC-VxI9ipxhp3WC-15" value="" style="shape=image;verticalLabelPosition=bottom;labelBackgroundColor=default;verticalAlign=top;aspect=fixed;imageAspect=0;image=data:image/svg+xml,PHN2ZyB4bWxuczp4bGluaz0iaHR0cDovL3d3dy53My5vcmcvMTk5OS94bGluayIgeG1sbnM9Imh0dHA6Ly93d3cudzMub3JnLzIwMDAvc3ZnIiBoZWlnaHQ9IjMyNSIgd2lkdGg9IjMzMy44IiB2aWV3Qm94PSIwIDAgMzMzLjggMzI1Ij48ZyB0cmFuc2Zvcm09InRyYW5zbGF0ZSgtMzg2LjcwMDAwMDAwMDAwMDE2IC04MS40MzMzMzMzMzMzMzM0KSI+PHBhdGggZmlsbD0iI2ZmZiIgZD0iTTAgMGgxMDAwdjUwMEgweiIvPjxwYXRoIGZpbGw9IiNmZmYiIGQ9Ik00MDcuMiAxMDYuOTNhNSA1IDAgMCAxIDUtNUg2OTVhNSA1IDAgMCAxIDUgNXYyNzRhNSA1IDAgMCAxLTUgNUg0MTIuMmE1IDUgMCAwIDEtNS01eiIvPjxwYXRoIGZpbGw9IiNmZTcwNzAiIGQ9Ik00MDcuMiAxNDEuOTN2LTM1YTUgNSAwIDAgMSA1LTVINjk1YTUgNSAwIDAgMSA1IDV2MzUiLz48cGF0aCBmaWxsPSJub25lIiBzdHJva2U9IiMyODJjMzMiIGQ9Ik00MDcuMiAxMDYuOTNhNSA1IDAgMCAxIDUtNUg2OTVhNSA1IDAgMCAxIDUgNXYyNzRhNSA1IDAgMCAxLTUgNUg0MTIuMmE1IDUgMCAwIDEtNS01ek00MDcuMiAxNDEuOTNINzAwTTQ2Ny4yIDE0MS45M3YyNDQiLz48dXNlIHRyYW5zZm9ybT0ibWF0cml4KDEsMCwwLDEsNDE3LjIwMDAwMDAwMDAwMDE2LDEwMS45MzMzMzMzMzMzMzM0KSB0cmFuc2xhdGUoMTExLjAyNSAyMy42KSIgeGxpbms6aHJlZj0iI2EiLz48dXNlIHRyYW5zZm9ybT0ibWF0cml4KDEsMCwwLDEsNDEyLjIwMDAwMDAwMDAwMDE2LDE0NC40MzMzMzMzMzMzMzM0KSB0cmFuc2xhdGUoMTMgMTcuMSkiIHhsaW5rOmhyZWY9IiNiIi8+PHVzZSB0cmFuc2Zvcm09Im1hdHJpeCgxLDAsMCwxLDQ3Mi4yMDAwMDAwMDAwMDAxNiwxNDQuNDMzMzMzMzMzMzMzNCkgdHJhbnNsYXRlKDAgMTcuMSkiIHhsaW5rOmhyZWY9IiNjIi8+PHVzZSB0cmFuc2Zvcm09Im1hdHJpeCgxLDAsMCwxLDQ3Mi4yMDAwMDAwMDAwMDAxNiwxNDQuNDMzMzMzMzMzMzMzNCkgdHJhbnNsYXRlKDY5LjkgMTcuMSkiIHhsaW5rOmhyZWY9IiNkIi8+PHVzZSB0cmFuc2Zvcm09Im1hdHJpeCgxLDAsMCwxLDQ3Mi4yMDAwMDAwMDAwMDAxNiwxNzYuNDMzMzMzMzMzMzMzNCkgdHJhbnNsYXRlKDAgMTYuNzk5OTk5OTk5OTk5OTk3KSIgeGxpbms6aHJlZj0iI2UiLz48dXNlIHRyYW5zZm9ybT0ibWF0cml4KDEsMCwwLDEsNDcyLjIwMDAwMDAwMDAwMDE2LDE3Ni40MzMzMzMzMzMzMzM0KSB0cmFuc2xhdGUoMTEwLjgwMDAwMDAwMDAwMDAxIDE2Ljc5OTk5OTk5OTk5OTk5NykiIHhsaW5rOmhyZWY9IiNmIi8+PHVzZSB0cmFuc2Zvcm09Im1hdHJpeCgxLDAsMCwxLDQ3Mi4yMDAwMDAwMDAwMDAxNiwxNzYuNDMzMzMzMzMzMzMzNCkgdHJhbnNsYXRlKDAgMzguNCkiIHhsaW5rOmhyZWY9IiNnIi8+PHVzZSB0cmFuc2Zvcm09Im1hdHJpeCgxLDAsMCwxLDQ3Mi4yMDAwMDAwMDAwMDAxNiwxNzYuNDMzMzMzMzMzMzMzNCkgdHJhbnNsYXRlKDQyLjU1MDAwMDAwMDAwMDAwNCAzOC40KSIgeGxpbms6aHJlZj0iI2giLz48Zz48dXNlIHRyYW5zZm9ybT0ibWF0cml4KDEsMCwwLDEsNDcyLjIwMDAwMDAwMDAwMDE2LDIyOS40MzMzMzMzMzMzMzM0KSB0cmFuc2xhdGUoMCAxNi43OTk5OTk5OTk5OTk5OTcpIiB4bGluazpocmVmPSIjaSIvPjx1c2UgdHJhbnNmb3JtPSJtYXRyaXgoMSwwLDAsMSw0NzIuMjAwMDAwMDAwMDAwMTYsMjI5LjQzMzMzMzMzMzMzMzQpIHRyYW5zbGF0ZSgxMDAgMTYuNzk5OTk5OTk5OTk5OTk3KSIgeGxpbms6aHJlZj0iI2YiLz48dXNlIHRyYW5zZm9ybT0ibWF0cml4KDEsMCwwLDEsNDcyLjIwMDAwMDAwMDAwMDE2LDIyOS40MzMzMzMzMzMzMzM0KSB0cmFuc2xhdGUoMCAzOC40KSIgeGxpbms6aHJlZj0iI2ciLz48dXNlIHRyYW5zZm9ybT0ibWF0cml4KDEsMCwwLDEsNDcyLjIwMDAwMDAwMDAwMDE2LDIyOS40MzMzMzMzMzMzMzM0KSB0cmFuc2xhdGUoNDIuNTUwMDAwMDAwMDAwMDA0IDM4LjQpIiB4bGluazpocmVmPSIjaCIvPjwvZz48Zz48dXNlIHRyYW5zZm9ybT0ibWF0cml4KDEsMCwwLDEsNDcyLjIwMDAwMDAwMDAwMDE2LDI4Mi40MzMzMzMzMzMzMzM0KSB0cmFuc2xhdGUoMCAxNi43OTk5OTk5OTk5OTk5OTcpIiB4bGluazpocmVmPSIjaiIvPjx1c2UgdHJhbnNmb3JtPSJtYXRyaXgoMSwwLDAsMSw0NzIuMjAwMDAwMDAwMDAwMTYsMjgyLjQzMzMzMzMzMzMzMzQpIHRyYW5zbGF0ZSg4OC45IDE2Ljc5OTk5OTk5OTk5OTk5NykiIHhsaW5rOmhyZWY9IiNrIi8+PHVzZSB0cmFuc2Zvcm09Im1hdHJpeCgxLDAsMCwxLDQ3Mi4yMDAwMDAwMDAwMDAxNiwyODIuNDMzMzMzMzMzMzMzNCkgdHJhbnNsYXRlKDAgMzguNCkiIHhsaW5rOmhyZWY9IiNnIi8+PHVzZSB0cmFuc2Zvcm09Im1hdHJpeCgxLDAsMCwxLDQ3Mi4yMDAwMDAwMDAwMDAxNiwyODIuNDMzMzMzMzMzMzMzNCkgdHJhbnNsYXRlKDQyLjU1MDAwMDAwMDAwMDAwNCAzOC40KSIgeGxpbms6aHJlZj0iI2giLz48L2c+PGc+PHVzZSB0cmFuc2Zvcm09Im1hdHJpeCgxLDAsMCwxLDQ3Mi4yMDAwMDAwMDAwMDAxNiwzMzUuNDMzMzMzMzMzMzMzNCkgdHJhbnNsYXRlKDAgMTYuNzk5OTk5OTk5OTk5OTk3KSIgeGxpbms6aHJlZj0iI2wiLz48dXNlIHRyYW5zZm9ybT0ibWF0cml4KDEsMCwwLDEsNDcyLjIwMDAwMDAwMDAwMDE2LDMzNS40MzMzMzMzMzMzMzM0KSB0cmFuc2xhdGUoMCAzOC40KSIgeGxpbms6aHJlZj0iI20iLz48dXNlIHRyYW5zZm9ybT0ibWF0cml4KDEsMCwwLDEsNDcyLjIwMDAwMDAwMDAwMDE2LDMzNS40MzMzMzMzMzMzMzM0KSB0cmFuc2xhdGUoMTIzLjM1MDAwMDAwMDAwMDAxIDM4LjQpIiB4bGluazpocmVmPSIjZyIvPjx1c2UgdHJhbnNmb3JtPSJtYXRyaXgoMSwwLDAsMSw0NzIuMjAwMDAwMDAwMDAwMTYsMzM1LjQzMzMzMzMzMzMzMzQpIHRyYW5zbGF0ZSgxNjUuOSAzOC40KSIgeGxpbms6aHJlZj0iI2giLz48L2c+PGRlZnM+PHBhdGggaWQ9Im4iIGQ9Ik0yMzMtMTc3Yy0xIDQxLTIzIDY0LTYwIDcwTDI0MyAwaC0zOGwtNjUtMTAzSDYzVjBIMzB2LTI0OGM4OCAzIDIwNS0yMSAyMDMgNzF6TTYzLTEyOWM2MC0yIDEzNyAxMyAxMzctNDcgMC02MS04MC00Mi0xMzctNDV2OTIiLz48cGF0aCBpZD0ibyIgZD0iTTE0MS0zNkMxMjYtMTUgMTEwIDUgNzMgNCAzNyAzIDE1LTE3IDE1LTUzYy0xLTY0IDYzLTYzIDEyNS02MyAzLTM1LTktNTQtNDEtNTQtMjQgMS00MSA3LTQyIDMxbC0zMy0zYzUtMzcgMzMtNTIgNzYtNTIgNDUgMCA3MiAyMCA3MiA2NHY4MmMtMSAyMCA3IDMyIDI4IDI3djIwYy0zMSA5LTYxLTItNTktMzV6TTQ4LTUzYzAgMjAgMTIgMzMgMzIgMzMgNDEtMyA2My0yOSA2MC03NC00MyAyLTkyLTUtOTIgNDEiLz48cGF0aCBpZD0icCIgZD0iTTk2LTE2OWMtNDAgMC00OCAzMy00OCA3M3M5IDc1IDQ4IDc1YzI0IDAgNDEtMTQgNDMtMzhsMzIgMmMtNiAzNy0zMSA2MS03NCA2MS01OSAwLTc2LTQxLTgyLTk5LTEwLTkzIDEwMS0xMzEgMTQ3LTY0IDQgNyA1IDE0IDcgMjJsLTMyIDNjLTQtMjEtMTYtMzUtNDEtMzUiLz48cGF0aCBpZD0icSIgZD0iTTEwMC0xOTRjNjMgMCA4NiA0MiA4NCAxMDZINDljMCA0MCAxNCA2NyA1MyA2OCAyNiAxIDQzLTEyIDQ5LTI5bDI4IDhjLTExIDI4LTM3IDQ1LTc3IDQ1QzQ0IDQgMTQtMzMgMTUtOTZjMS02MSAyNi05OCA4NS05OHptNTIgODFjNi02MC03Ni03Ny05Ny0yOC0zIDctNiAxNy02IDI4aDEwMyIvPjxwYXRoIGlkPSJyIiBkPSJNMTM1LTE0M2MtMy0zNC04Ni0zOC04NyAwIDE1IDUzIDExNSAxMiAxMTkgOTBTMTcgMjEgMTAtNDVsMjgtNWM0IDM2IDk3IDQ1IDk4IDAtMTAtNTYtMTEzLTE1LTExOC05MC00LTU3IDgyLTYzIDEyMi00MiAxMiA3IDIxIDE5IDI0IDM1Ii8+PGcgaWQ9ImEiPjx1c2UgeGxpbms6aHJlZj0iI24iIHRyYW5zZm9ybT0ibWF0cml4KDAuMDUsMCwwLDAuMDUsMCwwKSIvPjx1c2UgeGxpbms6aHJlZj0iI28iIHRyYW5zZm9ybT0ibWF0cml4KDAuMDUsMCwwLDAuMDUsMTIuOTUwMDAwMDAwMDAwMDAxLDApIi8+PHVzZSB4bGluazpocmVmPSIjcCIgdHJhbnNmb3JtPSJtYXRyaXgoMC4wNSwwLDAsMC4wNSwyMi45NTAwMDAwMDAwMDAwMDMsMCkiLz48dXNlIHhsaW5rOmhyZWY9IiNxIiB0cmFuc2Zvcm09Im1hdHJpeCgwLjA1LDAsMCwwLjA1LDMxLjk1MDAwMDAwMDAwMDAwMywwKSIvPjx1c2UgeGxpbms6aHJlZj0iI3IiIHRyYW5zZm9ybT0ibWF0cml4KDAuMDUsMCwwLDAuMDUsNDEuOTUsMCkiLz48L2c+PHBhdGggaWQ9InMiIGQ9Ik0zMC0yNDhjODcgMSAxOTEtMTUgMTkxIDc1IDAgNzgtNzcgODAtMTU4IDc2VjBIMzB2LTI0OHptMzMgMTI1YzU3IDAgMTI0IDExIDEyNC01MCAwLTU5LTY4LTQ3LTEyNC00OHY5OCIvPjxwYXRoIGlkPSJ0IiBkPSJNMTk0IDBMOTUtMTIwIDYzLTk1VjBIMzB2LTI0OGgzM3YxMjRsMTE5LTEyNGg0MEwxMTctMTQwIDIzNiAwaC00MiIvPjxnIGlkPSJiIj48dXNlIHhsaW5rOmhyZWY9IiNzIiB0cmFuc2Zvcm09Im1hdHJpeCgwLjA1LDAsMCwwLjA1LDAsMCkiLz48dXNlIHhsaW5rOmhyZWY9IiN0IiB0cmFuc2Zvcm09Im1hdHJpeCgwLjA1LDAsMCwwLjA1LDEyLDApIi8+PC9nPjxwYXRoIGlkPSJ1IiBkPSJNMjMzLTE3N2MtMSA0MS0yMyA2NC02MCA3MEwyNDMgMGgtMzhsLTY1LTEwM0g2M1YwSDMwdi0yNDhjODggMyAyMDUtMjEgMjAzIDcxek02My0xMjljNjAtMiAxMzcgMTMgMTM3LTQ3IDAtNjEtODAtNDItMTM3LTQ1djkyIiBmaWxsPSIjMzMzIi8+PHBhdGggaWQ9InYiIGQ9Ik0xNDEtMzZDMTI2LTE1IDExMCA1IDczIDQgMzcgMyAxNS0xNyAxNS01M2MtMS02NCA2My02MyAxMjUtNjMgMy0zNS05LTU0LTQxLTU0LTI0IDEtNDEgNy00MiAzMWwtMzMtM2M1LTM3IDMzLTUyIDc2LTUyIDQ1IDAgNzIgMjAgNzIgNjR2ODJjLTEgMjAgNyAzMiAyOCAyN3YyMGMtMzEgOS02MS0yLTU5LTM1ek00OC01M2MwIDIwIDEyIDMzIDMyIDMzIDQxLTMgNjMtMjkgNjAtNzQtNDMgMi05Mi01LTkyIDQxIiBmaWxsPSIjMzMzIi8+PHBhdGggaWQ9InciIGQ9Ik05Ni0xNjljLTQwIDAtNDggMzMtNDggNzNzOSA3NSA0OCA3NWMyNCAwIDQxLTE0IDQzLTM4bDMyIDJjLTYgMzctMzEgNjEtNzQgNjEtNTkgMC03Ni00MS04Mi05OS0xMC05MyAxMDEtMTMxIDE0Ny02NCA0IDcgNSAxNCA3IDIybC0zMiAzYy00LTIxLTE2LTM1LTQxLTM1IiBmaWxsPSIjMzMzIi8+PHBhdGggaWQ9IngiIGQ9Ik0xMDAtMTk0YzYzIDAgODYgNDIgODQgMTA2SDQ5YzAgNDAgMTQgNjcgNTMgNjggMjYgMSA0My0xMiA0OS0yOWwyOCA4Yy0xMSAyOC0zNyA0NS03NyA0NUM0NCA0IDE0LTMzIDE1LTk2YzEtNjEgMjYtOTggODUtOTh6bTUyIDgxYzYtNjAtNzYtNzctOTctMjgtMyA3LTYgMTctNiAyOGgxMDMiIGZpbGw9IiMzMzMiLz48cGF0aCBpZD0ieSIgZD0iTTMzIDB2LTI0OGgzNFYwSDMzIiBmaWxsPSIjMzMzIi8+PHBhdGggaWQ9InoiIGQ9Ik0zMC0yNDhjMTE4LTcgMjE2IDggMjEzIDEyMkMyNDAtNDggMjAwIDAgMTIyIDBIMzB2LTI0OHpNNjMtMjdjODkgOCAxNDYtMTYgMTQ2LTk5cy02MC0xMDEtMTQ2LTk1djE5NCIgZmlsbD0iIzMzMyIvPjxnIGlkPSJjIj48dXNlIHhsaW5rOmhyZWY9IiN1IiB0cmFuc2Zvcm09Im1hdHJpeCgwLjA1LDAsMCwwLjA1LDAsMCkiLz48dXNlIHhsaW5rOmhyZWY9IiN2IiB0cmFuc2Zvcm09Im1hdHJpeCgwLjA1LDAsMCwwLjA1LDEyLjk1MDAwMDAwMDAwMDAwMSwwKSIvPjx1c2UgeGxpbms6aHJlZj0iI3ciIHRyYW5zZm9ybT0ibWF0cml4KDAuMDUsMCwwLDAuMDUsMjIuOTUwMDAwMDAwMDAwMDAzLDApIi8+PHVzZSB4bGluazpocmVmPSIjeCIgdHJhbnNmb3JtPSJtYXRyaXgoMC4wNSwwLDAsMC4wNSwzMS45NTAwMDAwMDAwMDAwMDMsMCkiLz48dXNlIHhsaW5rOmhyZWY9IiN5IiB0cmFuc2Zvcm09Im1hdHJpeCgwLjA1LDAsMCwwLjA1LDQxLjk1LDApIi8+PHVzZSB4bGluazpocmVmPSIjeiIgdHJhbnNmb3JtPSJtYXRyaXgoMC4wNSwwLDAsMC4wNSw0Ni45NSwwKSIvPjwvZz48cGF0aCBpZD0iQSIgZD0iTTE5MCAwTDU4LTIxMSA1OSAwSDMwdi0yNDhoMzlMMjAyLTM1bC0yLTIxM2gzMVYwaC00MSIgZmlsbD0iIzMzMyIvPjxwYXRoIGlkPSJCIiBkPSJNMjMyLTkzYy0xIDY1LTQwIDk3LTEwNCA5N0M2NyA0IDI4LTI4IDI4LTkwdi0xNThoMzNjOCA4OS0zMyAyMjQgNjcgMjI0IDEwMiAwIDY0LTEzMyA3MS0yMjRoMzN2MTU1IiBmaWxsPSIjMzMzIi8+PHBhdGggaWQ9IkMiIGQ9Ik0yNDAgMGwyLTIxOGMtMjMgNzYtNTQgMTQ1LTgwIDIxOGgtMjNMNTgtMjE4IDU5IDBIMzB2LTI0OGg0NGw3NyAyMTFjMjEtNzUgNTEtMTQwIDc2LTIxMWg0M1YwaC0zMCIgZmlsbD0iIzMzMyIvPjxwYXRoIGlkPSJEIiBkPSJNMTYwLTEzMWMzNSA1IDYxIDIzIDYxIDYxQzIyMSAxNyAxMTUtMiAzMCAwdi0yNDhjNzYgMyAxNzctMTcgMTc3IDYwIDAgMzMtMTkgNTAtNDcgNTd6bS05Ny0xMWM1MC0xIDExMCA5IDExMC00MiAwLTQ3LTYzLTM2LTExMC0zN3Y3OXptMCAxMTVjNTUtMiAxMjQgMTQgMTI0LTQ1IDAtNTYtNzAtNDItMTI0LTQ0djg5IiBmaWxsPSIjMzMzIi8+PHBhdGggaWQ9IkUiIGQ9Ik0zMCAwdi0yNDhoMTg3djI4SDYzdjc5aDE0NHYyN0g2M3Y4N2gxNjJWMEgzMCIgZmlsbD0iIzMzMyIvPjxwYXRoIGlkPSJGIiBkPSJNODcgNzVDNDkgMzMgMjItMTcgMjItOTRjMC03NiAyOC0xMjYgNjUtMTY3aDMxYy0zOCA0MS02NCA5Mi02NCAxNjhTODAgMzQgMTE4IDc1SDg3IiBmaWxsPSIjMzMzIi8+PHBhdGggaWQ9IkciIGQ9Ik02NCAwYzMtOTggNDgtMTU5IDg4LTIyMUgxOHYtMjdoMTY0djI2QzE0My0xNTcgOTgtMTAxIDk3IDBINjQiIGZpbGw9IiMzMzMiLz48cGF0aCBpZD0iSCIgZD0iTTMzLTI2MWMzOCA0MSA2NSA5MiA2NSAxNjhTNzEgMzQgMzMgNzVIMkMzOSAzNCA2Ni0xNyA2Ni05M1MzOS0yMjAgMi0yNjFoMzEiIGZpbGw9IiMzMzMiLz48ZyBpZD0iZCI+PHVzZSB4bGluazpocmVmPSIjQSIgdHJhbnNmb3JtPSJtYXRyaXgoMC4wNSwwLDAsMC4wNSwwLDApIi8+PHVzZSB4bGluazpocmVmPSIjQiIgdHJhbnNmb3JtPSJtYXRyaXgoMC4wNSwwLDAsMC4wNSwxMi45NTAwMDAwMDAwMDAwMDEsMCkiLz48dXNlIHhsaW5rOmhyZWY9IiNDIiB0cmFuc2Zvcm09Im1hdHJpeCgwLjA1LDAsMCwwLjA1LDI1LjkwMDAwMDAwMDAwMDAwMiwwKSIvPjx1c2UgeGxpbms6aHJlZj0iI0QiIHRyYW5zZm9ybT0ibWF0cml4KDAuMDUsMCwwLDAuMDUsNDAuODUsMCkiLz48dXNlIHhsaW5rOmhyZWY9IiNFIiB0cmFuc2Zvcm09Im1hdHJpeCgwLjA1LDAsMCwwLjA1LDUyLjg1LDApIi8+PHVzZSB4bGluazpocmVmPSIjdSIgdHJhbnNmb3JtPSJtYXRyaXgoMC4wNSwwLDAsMC4wNSw2NC44NSwwKSIvPjx1c2UgeGxpbms6aHJlZj0iI0YiIHRyYW5zZm9ybT0ibWF0cml4KDAuMDUsMCwwLDAuMDUsNzcuOCwwKSIvPjx1c2UgeGxpbms6aHJlZj0iI0ciIHRyYW5zZm9ybT0ibWF0cml4KDAuMDUsMCwwLDAuMDUsODMuNzUsMCkiLz48dXNlIHhsaW5rOmhyZWY9IiNIIiB0cmFuc2Zvcm09Im1hdHJpeCgwLjA1LDAsMCwwLjA1LDkzLjc1LDApIi8+PC9nPjxwYXRoIGlkPSJJIiBkPSJNMTI3LTIyMFYwSDkzdi0yMjBIOHYtMjhoMjA0djI4aC04NSIgZmlsbD0iIzMzMyIvPjxwYXRoIGlkPSJKIiBkPSJNMTQzIDBMNzktODcgNTYtNjhWMEgyNHYtMjYxaDMydjE2M2w4My05MmgzN2wtNzcgODJMMTgxIDBoLTM4IiBmaWxsPSIjMzMzIi8+PHBhdGggaWQ9IksiIGQ9Ik0xNDAtMjUxYzgxIDAgMTIzIDQ2IDEyMyAxMjZDMjYzLTQ2IDIxOSA0IDE0MCA0IDU5IDQgMTctNDUgMTctMTI1czQyLTEyNiAxMjMtMTI2em0wIDIyN2M2MyAwIDg5LTQxIDg5LTEwMXMtMjktOTktODktOTljLTYxIDAtODkgMzktODkgOTlTNzktMjUgMTQwLTI0IiBmaWxsPSIjMzMzIi8+PHBhdGggaWQ9IkwiIGQ9Ik0xMDEtMjM0Yy0zMS05LTQyIDEwLTM4IDQ0aDM4djIzSDYzVjBIMzJ2LTE2N0g1di0yM2gyN2MtNy01MiAxNy04MiA2OS02OHYyNCIgZmlsbD0iIzMzMyIvPjxwYXRoIGlkPSJNIiBkPSJNMjQtMjMxdi0zMGgzMnYzMEgyNHpNMjQgMHYtMTkwaDMyVjBIMjQiIGZpbGw9IiMzMzMiLz48cGF0aCBpZD0iTiIgZD0iTTIxMC0xNjljLTY3IDMtMzggMTA1LTQ0IDE2OWgtMzF2LTEyMWMwLTI5LTUtNTAtMzUtNDhDMzQtMTY1IDYyLTY1IDU2IDBIMjVsLTEtMTkwaDMwYzEgMTAtMSAyNCAyIDMyIDEwLTQ0IDk5LTUwIDEwNyAwIDExLTIxIDI3LTM1IDU4LTM2IDg1LTIgNDcgMTE5IDU1IDE5NGgtMzF2LTEyMWMwLTI5LTUtNDktMzUtNDgiIGZpbGw9IiMzMzMiLz48ZyBpZD0iZSI+PHVzZSB4bGluazpocmVmPSIjSSIgdHJhbnNmb3JtPSJtYXRyaXgoMC4wNSwwLDAsMC4wNSwwLDApIi8+PHVzZSB4bGluazpocmVmPSIjdiIgdHJhbnNmb3JtPSJtYXRyaXgoMC4wNSwwLDAsMC4wNSw4Ljk1MDAwMDAwMDAwMDAwMSwwKSIvPjx1c2UgeGxpbms6aHJlZj0iI0oiIHRyYW5zZm9ybT0ibWF0cml4KDAuMDUsMCwwLDAuMDUsMTguOTUwMDAwMDAwMDAwMDAzLDApIi8+PHVzZSB4bGluazpocmVmPSIjeCIgdHJhbnNmb3JtPSJtYXRyaXgoMC4wNSwwLDAsMC4wNSwyNy45NTAwMDAwMDAwMDAwMDMsMCkiLz48dXNlIHhsaW5rOmhyZWY9IiNLIiB0cmFuc2Zvcm09Im1hdHJpeCgwLjA1LDAsMCwwLjA1LDM3Ljk1LDApIi8+PHVzZSB4bGluazpocmVmPSIjTCIgdHJhbnNmb3JtPSJtYXRyaXgoMC4wNSwwLDAsMC4wNSw1MS45NSwwKSIvPjx1c2UgeGxpbms6aHJlZj0iI0wiIHRyYW5zZm9ybT0ibWF0cml4KDAuMDUsMCwwLDAuMDUsNTYuNiwwKSIvPjx1c2UgeGxpbms6aHJlZj0iI0kiIHRyYW5zZm9ybT0ibWF0cml4KDAuMDUsMCwwLDAuMDUsNjEuNiwwKSIvPjx1c2UgeGxpbms6aHJlZj0iI00iIHRyYW5zZm9ybT0ibWF0cml4KDAuMDUsMCwwLDAuMDUsNzEuOSwwKSIvPjx1c2UgeGxpbms6aHJlZj0iI04iIHRyYW5zZm9ybT0ibWF0cml4KDAuMDUsMCwwLDAuMDUsNzUuODUwMDAwMDAwMDAwMDEsMCkiLz48dXNlIHhsaW5rOmhyZWY9IiN4IiB0cmFuc2Zvcm09Im1hdHJpeCgwLjA1LDAsMCwwLjA1LDkwLjgwMDAwMDAwMDAwMDAxLDApIi8+PC9nPjxwYXRoIGlkPSJPIiBkPSJNMjA1IDBsLTI4LTcySDY0TDM2IDBIMWwxMDEtMjQ4aDM4TDIzOSAwaC0zNHptLTM4LTk5bC00Ny0xMjNjLTEyIDQ1LTMxIDgyLTQ2IDEyM2g5MyIgZmlsbD0iIzMzMyIvPjxnIGlkPSJmIj48dXNlIHhsaW5rOmhyZWY9IiN6IiB0cmFuc2Zvcm09Im1hdHJpeCgwLjA1LDAsMCwwLjA1LDAsMCkiLz48dXNlIHhsaW5rOmhyZWY9IiNPIiB0cmFuc2Zvcm09Im1hdHJpeCgwLjA1LDAsMCwwLjA1LDEyLjk1MDAwMDAwMDAwMDAwMSwwKSIvPjx1c2UgeGxpbms6aHJlZj0iI0kiIHRyYW5zZm9ybT0ibWF0cml4KDAuMDUsMCwwLDAuMDUsMjMuNiwwKSIvPjx1c2UgeGxpbms6aHJlZj0iI0UiIHRyYW5zZm9ybT0ibWF0cml4KDAuMDUsMCwwLDAuMDUsMzQuNTUwMDAwMDAwMDAwMDA0LDApIi8+PHVzZSB4bGluazpocmVmPSIjSSIgdHJhbnNmb3JtPSJtYXRyaXgoMC4wNSwwLDAsMC4wNSw0Ni41NTAwMDAwMDAwMDAwMDQsMCkiLz48dXNlIHhsaW5rOmhyZWY9IiN5IiB0cmFuc2Zvcm09Im1hdHJpeCgwLjA1LDAsMCwwLjA1LDU3LjUsMCkiLz48dXNlIHhsaW5rOmhyZWY9IiNDIiB0cmFuc2Zvcm09Im1hdHJpeCgwLjA1LDAsMCwwLjA1LDYyLjUsMCkiLz48dXNlIHhsaW5rOmhyZWY9IiNFIiB0cmFuc2Zvcm09Im1hdHJpeCgwLjA1LDAsMCwwLjA1LDc3LjQ1LDApIi8+PC9nPjxnIGlkPSJnIj48dXNlIHhsaW5rOmhyZWY9IiNBIiB0cmFuc2Zvcm09Im1hdHJpeCgwLjA1LDAsMCwwLjA1LDAsMCkiLz48dXNlIHhsaW5rOmhyZWY9IiNLIiB0cmFuc2Zvcm09Im1hdHJpeCgwLjA1LDAsMCwwLjA1LDEyLjk1MDAwMDAwMDAwMDAwMSwwKSIvPjx1c2UgeGxpbms6aHJlZj0iI0kiIHRyYW5zZm9ybT0ibWF0cml4KDAuMDUsMCwwLDAuMDUsMjYuOTUwMDAwMDAwMDAwMDAzLDApIi8+PC9nPjxwYXRoIGlkPSJQIiBkPSJNMzAgMHYtMjQ4aDMzdjIyMWgxMjVWMEgzMCIgZmlsbD0iIzMzMyIvPjxnIGlkPSJoIj48dXNlIHhsaW5rOmhyZWY9IiNBIiB0cmFuc2Zvcm09Im1hdHJpeCgwLjA1LDAsMCwwLjA1LDAsMCkiLz48dXNlIHhsaW5rOmhyZWY9IiNCIiB0cmFuc2Zvcm09Im1hdHJpeCgwLjA1LDAsMCwwLjA1LDEyLjk1MDAwMDAwMDAwMDAwMSwwKSIvPjx1c2UgeGxpbms6aHJlZj0iI1AiIHRyYW5zZm9ybT0ibWF0cml4KDAuMDUsMCwwLDAuMDUsMjUuOTAwMDAwMDAwMDAwMDAyLDApIi8+PHVzZSB4bGluazpocmVmPSIjUCIgdHJhbnNmb3JtPSJtYXRyaXgoMC4wNSwwLDAsMC4wNSwzNS45MDAwMDAwMDAwMDAwMDYsMCkiLz48L2c+PHBhdGggaWQ9IlEiIGQ9Ik0xMTQtMTYzQzM2LTE3OSA2MS03MiA1NyAwSDI1bC0xLTE5MGgzMGMxIDEyLTEgMjkgMiAzOSA2LTI3IDIzLTQ5IDU4LTQxdjI5IiBmaWxsPSIjMzMzIi8+PHBhdGggaWQ9IlIiIGQ9Ik0xMDggMEg3MEwxLTE5MGgzNEw4OS0yNWw1Ni0xNjVoMzQiIGZpbGw9IiMzMzMiLz48cGF0aCBpZD0iUyIgZD0iTTI0IDB2LTI2MWgzMlYwSDI0IiBmaWxsPSIjMzMzIi8+PGcgaWQ9ImkiPjx1c2UgeGxpbms6aHJlZj0iI08iIHRyYW5zZm9ybT0ibWF0cml4KDAuMDUsMCwwLDAuMDUsMCwwKSIvPjx1c2UgeGxpbms6aHJlZj0iI1EiIHRyYW5zZm9ybT0ibWF0cml4KDAuMDUsMCwwLDAuMDUsMTIsMCkiLz48dXNlIHhsaW5rOmhyZWY9IiNRIiB0cmFuc2Zvcm09Im1hdHJpeCgwLjA1LDAsMCwwLjA1LDE3Ljk1LDApIi8+PHVzZSB4bGluazpocmVmPSIjTSIgdHJhbnNmb3JtPSJtYXRyaXgoMC4wNSwwLDAsMC4wNSwyMy45LDApIi8+PHVzZSB4bGluazpocmVmPSIjUiIgdHJhbnNmb3JtPSJtYXRyaXgoMC4wNSwwLDAsMC4wNSwyNy44NDk5OTk5OTk5OTk5OTQsMCkiLz48dXNlIHhsaW5rOmhyZWY9IiN2IiB0cmFuc2Zvcm09Im1hdHJpeCgwLjA1LDAsMCwwLjA1LDM2Ljg0OTk5OTk5OTk5OTk5NCwwKSIvPjx1c2UgeGxpbms6aHJlZj0iI1MiIHRyYW5zZm9ybT0ibWF0cml4KDAuMDUsMCwwLDAuMDUsNDYuODQ5OTk5OTk5OTk5OTk0LDApIi8+PHVzZSB4bGluazpocmVmPSIjSSIgdHJhbnNmb3JtPSJtYXRyaXgoMC4wNSwwLDAsMC4wNSw1MC44LDApIi8+PHVzZSB4bGluazpocmVmPSIjTSIgdHJhbnNmb3JtPSJtYXRyaXgoMC4wNSwwLDAsMC4wNSw2MS4xLDApIi8+PHVzZSB4bGluazpocmVmPSIjTiIgdHJhbnNmb3JtPSJtYXRyaXgoMC4wNSwwLDAsMC4wNSw2NS4wNSwwKSIvPjx1c2UgeGxpbms6aHJlZj0iI3giIHRyYW5zZm9ybT0ibWF0cml4KDAuMDUsMCwwLDAuMDUsODAsMCkiLz48L2c+PHBhdGggaWQ9IlQiIGQ9Ik0xODUtMTg5Yy01LTQ4LTEyMy01NC0xMjQgMiAxNCA3NSAxNTggMTQgMTYzIDExOSAzIDc4LTEyMSA4Ny0xNzUgNTUtMTctMTAtMjgtMjYtMzMtNDZsMzMtN2M1IDU2IDE0MSA2MyAxNDEtMSAwLTc4LTE1NS0xNC0xNjItMTE4LTUtODIgMTQ1LTg0IDE3OS0zNCA1IDcgOCAxNiAxMSAyNSIgZmlsbD0iIzMzMyIvPjxwYXRoIGlkPSJVIiBkPSJNNTktNDdjLTIgMjQgMTggMjkgMzggMjJ2MjRDNjQgOSAyNyA0IDI3LTQwdi0xMjdINXYtMjNoMjRsOS00M2gyMXY0M2gzNXYyM0g1OXYxMjAiIGZpbGw9IiMzMzMiLz48cGF0aCBpZD0iViIgZD0iTTMwLTI0OGM4NyAxIDE5MS0xNSAxOTEgNzUgMCA3OC03NyA4MC0xNTggNzZWMEgzMHYtMjQ4em0zMyAxMjVjNTcgMCAxMjQgMTEgMTI0LTUwIDAtNTktNjgtNDctMTI0LTQ4djk4IiBmaWxsPSIjMzMzIi8+PHBhdGggaWQ9IlciIGQ9Ik0xMDAtMTk0YzYyLTEgODUgMzcgODUgOTkgMSA2My0yNyA5OS04NiA5OVMxNi0zNSAxNS05NWMwLTY2IDI4LTk5IDg1LTk5ek05OS0yMGM0NCAxIDUzLTMxIDUzLTc1IDAtNDMtOC03NS01MS03NXMtNTMgMzItNTMgNzUgMTAgNzQgNTEgNzUiIGZpbGw9IiMzMzMiLz48cGF0aCBpZD0iWCIgZD0iTTExNy0xOTRjODktNCA1MyAxMTYgNjAgMTk0aC0zMnYtMTIxYzAtMzEtOC00OS0zOS00OEMzNC0xNjcgNjItNjcgNTcgMEgyNWwtMS0xOTBoMzBjMSAxMC0xIDI0IDIgMzIgMTEtMjIgMjktMzUgNjEtMzYiIGZpbGw9IiMzMzMiLz48ZyBpZD0iaiI+PHVzZSB4bGluazpocmVmPSIjVCIgdHJhbnNmb3JtPSJtYXRyaXgoMC4wNSwwLDAsMC4wNSwwLDApIi8+PHVzZSB4bGluazpocmVmPSIjVSIgdHJhbnNmb3JtPSJtYXRyaXgoMC4wNSwwLDAsMC4wNSwxMiwwKSIvPjx1c2UgeGxpbms6aHJlZj0iI3YiIHRyYW5zZm9ybT0ibWF0cml4KDAuMDUsMCwwLDAuMDUsMTcsMCkiLz48dXNlIHhsaW5rOmhyZWY9IiNRIiB0cmFuc2Zvcm09Im1hdHJpeCgwLjA1LDAsMCwwLjA1LDI3LDApIi8+PHVzZSB4bGluazpocmVmPSIjVSIgdHJhbnNmb3JtPSJtYXRyaXgoMC4wNSwwLDAsMC4wNSwzMi45NSwwKSIvPjx1c2UgeGxpbms6aHJlZj0iI1YiIHRyYW5zZm9ybT0ibWF0cml4KDAuMDUsMCwwLDAuMDUsMzcuOTUsMCkiLz48dXNlIHhsaW5rOmhyZWY9IiNXIiB0cmFuc2Zvcm09Im1hdHJpeCgwLjA1LDAsMCwwLjA1LDQ5Ljk1LDApIi8+PHVzZSB4bGluazpocmVmPSIjTSIgdHJhbnNmb3JtPSJtYXRyaXgoMC4wNSwwLDAsMC4wNSw1OS45NSwwKSIvPjx1c2UgeGxpbms6aHJlZj0iI1giIHRyYW5zZm9ybT0ibWF0cml4KDAuMDUsMCwwLDAuMDUsNjMuOTAwMDAwMDAwMDAwMDA2LDApIi8+PHVzZSB4bGluazpocmVmPSIjVSIgdHJhbnNmb3JtPSJtYXRyaXgoMC4wNSwwLDAsMC4wNSw3My45LDApIi8+PC9nPjxwYXRoIGlkPSJZIiBkPSJNMTM3IDBoLTM0TDItMjQ4aDM1bDgzIDIxOCA4My0yMThoMzYiIGZpbGw9IiMzMzMiLz48cGF0aCBpZD0iWiIgZD0iTTIxMi0xNzljLTEwLTI4LTM1LTQ1LTczLTQ1LTU5IDAtODcgNDAtODcgOTkgMCA2MCAyOSAxMDEgODkgMTAxIDQzIDAgNjItMjQgNzgtNTJsMjcgMTRDMjI4LTI0IDE5NSA0IDEzOSA0IDU5IDQgMjItNDYgMTgtMTI1Yy02LTEwNCA5OS0xNTMgMTg3LTExMSAxOSA5IDMxIDI2IDM5IDQ2IiBmaWxsPSIjMzMzIi8+PHBhdGggaWQ9ImFhIiBkPSJNMTk3IDB2LTExNUg2M1YwSDMwdi0yNDhoMzN2MTA1aDEzNHYtMTA1aDM0VjBoLTM0IiBmaWxsPSIjMzMzIi8+PHBhdGggaWQ9ImFiIiBkPSJNNTQtMTQyYzQ4LTM1IDEzNy04IDEzMSA2MUMxOTYgMTggMzEgMzMgMTQtNTVsMzItNGM3IDIzIDIyIDM3IDUyIDM3IDM1LTEgNTEtMjIgNTQtNTggNC01NS03My02NS05OS0zNEgyMmw4LTEzNGgxNDF2MjdINTkiIGZpbGw9IiMzMzMiLz48cGF0aCBpZD0iYWMiIGQ9Ik0xMDEtMjUxYzY4IDAgODUgNTUgODUgMTI3UzE2NiA0IDEwMCA0QzMzIDQgMTQtNTIgMTQtMTI0YzAtNzMgMTctMTI3IDg3LTEyN3ptLTEgMjI5YzQ3IDAgNTQtNDkgNTQtMTAycy00LTEwMi01My0xMDJjLTUxIDAtNTUgNDgtNTUgMTAyIDAgNTMgNSAxMDIgNTQgMTAyIiBmaWxsPSIjMzMzIi8+PGcgaWQ9ImsiPjx1c2UgeGxpbms6aHJlZj0iI1kiIHRyYW5zZm9ybT0ibWF0cml4KDAuMDUsMCwwLDAuMDUsMCwwKSIvPjx1c2UgeGxpbms6aHJlZj0iI08iIHRyYW5zZm9ybT0ibWF0cml4KDAuMDUsMCwwLDAuMDUsMTAuNjUsMCkiLz48dXNlIHhsaW5rOmhyZWY9IiN1IiB0cmFuc2Zvcm09Im1hdHJpeCgwLjA1LDAsMCwwLjA1LDIyLjY1LDApIi8+PHVzZSB4bGluazpocmVmPSIjWiIgdHJhbnNmb3JtPSJtYXRyaXgoMC4wNSwwLDAsMC4wNSwzNS42LDApIi8+PHVzZSB4bGluazpocmVmPSIjYWEiIHRyYW5zZm9ybT0ibWF0cml4KDAuMDUsMCwwLDAuMDUsNDguNTUwMDAwMDAwMDAwMDA0LDApIi8+PHVzZSB4bGluazpocmVmPSIjTyIgdHJhbnNmb3JtPSJtYXRyaXgoMC4wNSwwLDAsMC4wNSw2MS41LDApIi8+PHVzZSB4bGluazpocmVmPSIjdSIgdHJhbnNmb3JtPSJtYXRyaXgoMC4wNSwwLDAsMC4wNSw3My41LDApIi8+PHVzZSB4bGluazpocmVmPSIjRiIgdHJhbnNmb3JtPSJtYXRyaXgoMC4wNSwwLDAsMC4wNSw4Ni40NSwwKSIvPjx1c2UgeGxpbms6aHJlZj0iI2FiIiB0cmFuc2Zvcm09Im1hdHJpeCgwLjA1LDAsMCwwLjA1LDkyLjQsMCkiLz48dXNlIHhsaW5rOmhyZWY9IiNhYyIgdHJhbnNmb3JtPSJtYXRyaXgoMC4wNSwwLDAsMC4wNSwxMDIuNCwwKSIvPjx1c2UgeGxpbms6aHJlZj0iI0giIHRyYW5zZm9ybT0ibWF0cml4KDAuMDUsMCwwLDAuMDUsMTEyLjQsMCkiLz48L2c+PHBhdGggaWQ9ImFkIiBkPSJNMTM1LTE0M2MtMy0zNC04Ni0zOC04NyAwIDE1IDUzIDExNSAxMiAxMTkgOTBTMTcgMjEgMTAtNDVsMjgtNWM0IDM2IDk3IDQ1IDk4IDAtMTAtNTYtMTEzLTE1LTExOC05MC00LTU3IDgyLTYzIDEyMi00MiAxMiA3IDIxIDE5IDI0IDM1IiBmaWxsPSIjMzMzIi8+PGcgaWQ9ImwiPjx1c2UgeGxpbms6aHJlZj0iI3oiIHRyYW5zZm9ybT0ibWF0cml4KDAuMDUsMCwwLDAuMDUsMCwwKSIvPjx1c2UgeGxpbms6aHJlZj0iI3giIHRyYW5zZm9ybT0ibWF0cml4KDAuMDUsMCwwLDAuMDUsMTIuOTUwMDAwMDAwMDAwMDAxLDApIi8+PHVzZSB4bGluazpocmVmPSIjYWQiIHRyYW5zZm9ybT0ibWF0cml4KDAuMDUsMCwwLDAuMDUsMjIuOTUwMDAwMDAwMDAwMDAzLDApIi8+PHVzZSB4bGluazpocmVmPSIjVSIgdHJhbnNmb3JtPSJtYXRyaXgoMC4wNSwwLDAsMC4wNSwzMS45NTAwMDAwMDAwMDAwMDMsMCkiLz48dXNlIHhsaW5rOmhyZWY9IiNNIiB0cmFuc2Zvcm09Im1hdHJpeCgwLjA1LDAsMCwwLjA1LDM2Ljk1LDApIi8+PHVzZSB4bGluazpocmVmPSIjWCIgdHJhbnNmb3JtPSJtYXRyaXgoMC4wNSwwLDAsMC4wNSw0MC45MDAwMDAwMDAwMDAwMDYsMCkiLz48dXNlIHhsaW5rOmhyZWY9IiN2IiB0cmFuc2Zvcm09Im1hdHJpeCgwLjA1LDAsMCwwLjA1LDUwLjkwMDAwMDAwMDAwMDAwNiwwKSIvPjx1c2UgeGxpbms6aHJlZj0iI1UiIHRyYW5zZm9ybT0ibWF0cml4KDAuMDUsMCwwLDAuMDUsNjAuOTAwMDAwMDAwMDAwMDA2LDApIi8+PHVzZSB4bGluazpocmVmPSIjTSIgdHJhbnNmb3JtPSJtYXRyaXgoMC4wNSwwLDAsMC4wNSw2NS45LDApIi8+PHVzZSB4bGluazpocmVmPSIjVyIgdHJhbnNmb3JtPSJtYXRyaXgoMC4wNSwwLDAsMC4wNSw2OS44NTAwMDAwMDAwMDAwMSwwKSIvPjx1c2UgeGxpbms6aHJlZj0iI1giIHRyYW5zZm9ybT0ibWF0cml4KDAuMDUsMCwwLDAuMDUsNzkuODUwMDAwMDAwMDAwMDEsMCkiLz48dXNlIHhsaW5rOmhyZWY9IiNWIiB0cmFuc2Zvcm09Im1hdHJpeCgwLjA1LDAsMCwwLjA1LDg5Ljg1MDAwMDAwMDAwMDAxLDApIi8+PHVzZSB4bGluazpocmVmPSIjVyIgdHJhbnNmb3JtPSJtYXRyaXgoMC4wNSwwLDAsMC4wNSwxMDEuODUwMDAwMDAwMDAwMDEsMCkiLz48dXNlIHhsaW5rOmhyZWY9IiNNIiB0cmFuc2Zvcm09Im1hdHJpeCgwLjA1LDAsMCwwLjA1LDExMS44NTAwMDAwMDAwMDAwMSwwKSIvPjx1c2UgeGxpbms6aHJlZj0iI1giIHRyYW5zZm9ybT0ibWF0cml4KDAuMDUsMCwwLDAuMDUsMTE1LjgwMDAwMDAwMDAwMDAxLDApIi8+PHVzZSB4bGluazpocmVmPSIjVSIgdHJhbnNmb3JtPSJtYXRyaXgoMC4wNSwwLDAsMC4wNSwxMjUuODAwMDAwMDAwMDAwMDEsMCkiLz48L2c+PGcgaWQ9Im0iPjx1c2UgeGxpbms6aHJlZj0iI1kiIHRyYW5zZm9ybT0ibWF0cml4KDAuMDUsMCwwLDAuMDUsMCwwKSIvPjx1c2UgeGxpbms6aHJlZj0iI08iIHRyYW5zZm9ybT0ibWF0cml4KDAuMDUsMCwwLDAuMDUsMTAuNjUsMCkiLz48dXNlIHhsaW5rOmhyZWY9IiN1IiB0cmFuc2Zvcm09Im1hdHJpeCgwLjA1LDAsMCwwLjA1LDIyLjY1LDApIi8+PHVzZSB4bGluazpocmVmPSIjWiIgdHJhbnNmb3JtPSJtYXRyaXgoMC4wNSwwLDAsMC4wNSwzNS42LDApIi8+PHVzZSB4bGluazpocmVmPSIjYWEiIHRyYW5zZm9ybT0ibWF0cml4KDAuMDUsMCwwLDAuMDUsNDguNTUwMDAwMDAwMDAwMDA0LDApIi8+PHVzZSB4bGluazpocmVmPSIjTyIgdHJhbnNmb3JtPSJtYXRyaXgoMC4wNSwwLDAsMC4wNSw2MS41LDApIi8+PHVzZSB4bGluazpocmVmPSIjdSIgdHJhbnNmb3JtPSJtYXRyaXgoMC4wNSwwLDAsMC4wNSw3My41LDApIi8+PHVzZSB4bGluazpocmVmPSIjRiIgdHJhbnNmb3JtPSJtYXRyaXgoMC4wNSwwLDAsMC4wNSw4Ni40NSwwKSIvPjx1c2UgeGxpbms6aHJlZj0iI2FiIiB0cmFuc2Zvcm09Im1hdHJpeCgwLjA1LDAsMCwwLjA1LDkyLjQsMCkiLz48dXNlIHhsaW5rOmhyZWY9IiNhYyIgdHJhbnNmb3JtPSJtYXRyaXgoMC4wNSwwLDAsMC4wNSwxMDIuNCwwKSIvPjx1c2UgeGxpbms6aHJlZj0iI0giIHRyYW5zZm9ybT0ibWF0cml4KDAuMDUsMCwwLDAuMDUsMTEyLjQsMCkiLz48L2c+PC9kZWZzPjwvZz48L3N2Zz4=;" vertex="1" parent="1">
          <mxGeometry x="517" y="460" width="334" height="325" as="geometry" />
        </mxCell>
        <mxCell id="vL1M8GC-VxI9ipxhp3WC-16" value="" style="endArrow=ERone;startArrow=oval;html=1;rounded=0;startFill=0;endFill=0;targetPerimeterSpacing=18;strokeWidth=1;sourcePerimeterSpacing=11;jumpSize=6;endSize=17;startSize=15;" edge="1" parent="1">
          <mxGeometry width="50" height="50" relative="1" as="geometry">
            <mxPoint x="348" y="480" as="sourcePoint" />
            <mxPoint x="510" y="230" as="targetPoint" />
            <Array as="points">
              <mxPoint x="430" y="480" />
              <mxPoint x="430" y="230" />
            </Array>
          </mxGeometry>
        </mxCell>
        <mxCell id="vL1M8GC-VxI9ipxhp3WC-17" value="" style="endArrow=ERone;startArrow=ERoneToMany;html=1;rounded=0;startFill=0;endFill=0;startSize=10;endSize=15;" edge="1" parent="1">
          <mxGeometry width="50" height="50" relative="1" as="geometry">
            <mxPoint x="830" y="270" as="sourcePoint" />
            <mxPoint x="538" y="535" as="targetPoint" />
            <Array as="points">
              <mxPoint x="910" y="270" />
              <mxPoint x="910" y="400" />
              <mxPoint x="490" y="400" />
              <mxPoint x="490" y="535" />
            </Array>
          </mxGeometry>
        </mxCell>
        <mxCell id="vL1M8GC-VxI9ipxhp3WC-18" value="&lt;font style=&quot;font-size: 16px;&quot;&gt;&lt;b&gt;1c&lt;/b&gt;&lt;/font&gt;" style="text;html=1;align=center;verticalAlign=middle;resizable=0;points=[];autosize=1;strokeColor=none;fillColor=none;" vertex="1" parent="1">
          <mxGeometry x="360" y="448" width="40" height="30" as="geometry" />
        </mxCell>
        <mxCell id="vL1M8GC-VxI9ipxhp3WC-19" value="&lt;font style=&quot;font-size: 16px;&quot;&gt;&lt;b&gt;1nc&lt;/b&gt;&lt;/font&gt;" style="text;html=1;align=center;verticalAlign=middle;resizable=0;points=[];autosize=1;strokeColor=none;fillColor=none;" vertex="1" parent="1">
          <mxGeometry x="445" y="200" width="50" height="30" as="geometry" />
        </mxCell>
        <mxCell id="vL1M8GC-VxI9ipxhp3WC-20" value="&lt;font style=&quot;font-size: 16px;&quot;&gt;&lt;b&gt;Mnc&lt;/b&gt;&lt;/font&gt;" style="text;html=1;align=center;verticalAlign=middle;resizable=0;points=[];autosize=1;strokeColor=none;fillColor=none;" vertex="1" parent="1">
          <mxGeometry x="845" y="240" width="60" height="30" as="geometry" />
        </mxCell>
        <mxCell id="vL1M8GC-VxI9ipxhp3WC-21" value="&lt;span style=&quot;font-size: 16px;&quot;&gt;&lt;b&gt;1nc&lt;/b&gt;&lt;/span&gt;" style="text;html=1;align=center;verticalAlign=middle;resizable=0;points=[];autosize=1;strokeColor=none;fillColor=none;" vertex="1" parent="1">
          <mxGeometry x="490" y="540" width="50" height="30" as="geometry" />
        </mxCell>
        <mxCell id="vL1M8GC-VxI9ipxhp3WC-22" value="&lt;font style=&quot;font-size: 19px;&quot;&gt;&lt;b&gt;1c - one conditional&lt;br&gt;1nc - one unconditional&lt;br&gt;Mc - many conditional&lt;br&gt;Mnc - one unconditional&lt;/b&gt;&lt;/font&gt;" style="text;html=1;align=left;verticalAlign=middle;resizable=0;points=[];autosize=1;strokeColor=none;fillColor=none;" vertex="1" parent="1">
          <mxGeometry x="20" y="530" width="240" height="100" as="geometry" />
        </mxCell>
        <mxCell id="vL1M8GC-VxI9ipxhp3WC-24" value="&lt;font style=&quot;font-size: 22px;&quot;&gt;&lt;b&gt;Airplane Tickets System ER-diagram&lt;/b&gt;&lt;/font&gt;" style="text;html=1;strokeColor=none;fillColor=#99CCFF;align=center;verticalAlign=middle;whiteSpace=wrap;rounded=1;" vertex="1" parent="1">
          <mxGeometry x="315" y="70" width="220" height="80" as="geometry" />
        </mxCell>
      </root>
    </mxGraphModel>
  </diagram>
</mxfile>
